<?xml version="1.0" encoding="utf-8"?>
<!-- Generator: Adobe Illustrator 23.1.1, SVG Export Plug-In . SVG Version: 6.00 Build 0)  -->
<svg version="1.1" id="Layer_1" xmlns="http://www.w3.org/2000/svg" xmlns:xlink="http://www.w3.org/1999/xlink" x="0px" y="0px"
	 viewBox="0 0 469.5 424.3" style="enable-background:new 0 0 469.5 424.3;" xml:space="preserve">
<style type="text/css">
	.st0{fill:url(#SVGID_1_);stroke:#000000;stroke-width:23;stroke-miterlimit:10;}
	.st1{fill:url(#SVGID_2_);}
	.st2{fill:url(#SVGID_3_);}
	.st3{fill:url(#SVGID_4_);}
	.st4{fill:url(#SVGID_5_);}
	.st5{fill:url(#SVGID_6_);}
	.st6{fill:#FFFFFF;}
	.st7{fill:#FFFFFF;stroke:#000000;stroke-width:6;stroke-miterlimit:10;}
	.st8{fill:url(#SVGID_7_);stroke:#000000;stroke-width:4;stroke-miterlimit:10;}
	.st9{fill:url(#SVGID_8_);}
	.st10{fill:url(#SVGID_9_);stroke:#000000;stroke-width:5;stroke-miterlimit:10;}
	.st11{fill:#1E560A;stroke:#000000;stroke-width:5;stroke-miterlimit:10;}
	.st12{fill:url(#SVGID_10_);}
	.st13{fill:url(#SVGID_11_);}
	.st14{fill:url(#SVGID_12_);}
	.st15{fill:url(#SVGID_13_);}
	.st16{fill:url(#SVGID_14_);}
	.st17{fill:url(#SVGID_15_);}
	.st18{fill:url(#SVGID_16_);stroke:#000000;stroke-width:6;stroke-miterlimit:10;}
	.st19{fill:url(#SVGID_17_);}
	.st20{fill:url(#SVGID_18_);stroke:#000000;stroke-width:6;stroke-miterlimit:10;}
	.st21{fill:url(#SVGID_19_);stroke:#000000;stroke-width:5;stroke-miterlimit:10;}
	.st22{fill:url(#SVGID_20_);stroke:#000000;stroke-width:3;stroke-miterlimit:10;}
	.st23{fill:url(#SVGID_21_);stroke:#000000;stroke-width:3;stroke-miterlimit:10;}
	.st24{fill:url(#SVGID_22_);stroke:#000000;stroke-width:3;stroke-miterlimit:10;}
	.st25{fill:url(#SVGID_23_);stroke:#000000;stroke-width:3;stroke-miterlimit:10;}
	.st26{fill:url(#SVGID_24_);stroke:#000000;stroke-width:3;stroke-miterlimit:10;}
	.st27{fill:url(#SVGID_25_);stroke:#000000;stroke-width:3;stroke-miterlimit:10;}
	.st28{fill:#FFDEF6;stroke:#000000;stroke-width:10;stroke-miterlimit:10;}
</style>
<title>Sheepfriday</title>
<radialGradient id="SVGID_1_" cx="237.9702" cy="145.4533" r="185.2595" gradientTransform="matrix(1 0 0 -1 0 369.2932)" gradientUnits="userSpaceOnUse">
	<stop  offset="0" style="stop-color:#FFFFFF"/>
	<stop  offset="0.28" style="stop-color:#BCBCBC"/>
	<stop  offset="0.92" style="stop-color:#141414"/>
	<stop  offset="1" style="stop-color:#000000"/>
</radialGradient>
<circle class="st0" cx="238" cy="223.8" r="185.3"/>
<radialGradient id="SVGID_2_" cx="236.4672" cy="68.1339" r="116.063" gradientTransform="matrix(1 0 0 -1 -6.92 354.1532)" gradientUnits="userSpaceOnUse">
	<stop  offset="0" style="stop-color:#FFFFFF"/>
	<stop  offset="0.1" style="stop-color:#FAFAFA"/>
	<stop  offset="0.23" style="stop-color:#ECECEC"/>
	<stop  offset="0.36" style="stop-color:#D4D4D4"/>
	<stop  offset="0.5" style="stop-color:#B2B2B2"/>
	<stop  offset="0.65" style="stop-color:#878787"/>
	<stop  offset="0.8" style="stop-color:#535353"/>
	<stop  offset="0.95" style="stop-color:#161616"/>
	<stop  offset="1" style="stop-color:#000000"/>
</radialGradient>
<path class="st1" d="M227,400.1c-7.4,0-15.4-2.7-21.8-7.5c-4.9-3.7-8.5-8.2-10.5-13.1l-0.4-0.9l-0.9-0.4c-2.6-1.1-5-2.6-7.2-4.2
	c-2.2-1.6-4.1-3.4-5.9-5.5l-1.5-1.8l-1.9,1.4c-3.6,2.7-8.4,4.2-14,4.2c-7.4,0-15.4-2.7-21.8-7.5c-7.1-5.3-11.5-12.3-12-19.2
	c-0.5-4.5,1.1-8.9,4.2-12.1c1.5-1.5,3.2-2.7,5.1-3.6l2.2-1.1l-1-2.2c-1.3-2.7-1.9-5.7-1.8-8.7l0.1-1.9l-1.9-0.5
	c-4.5-1.3-8.8-3.4-12.5-6.2c-7.1-5.3-11.5-12.3-12-19.2c-0.5-4.5,1.1-8.9,4.2-12.1c2.6-2.5,5.8-4.3,9.3-5.1l1.2-0.3l0.5-1.1
	c0.2-0.5,0.4-1,0.7-1.4l0.4-0.9l-0.3-0.9c-1.4-4.7-0.8-9.8,1.5-14.1l1.8-3.3l-3.7-0.3c-3.4-0.3-7.8-1.3-9.4-4.1
	c-1-1.8-0.4-3.8,1.8-9.8c0.6-1.7,1.3-3.7,2.1-6c1.6-4.9,3-9.9,4-15c0.7-3.4,1-4.8,2.8-7.4c3.6-5.2,9.3-9.1,16.9-11.6l1.5-0.5
	l0.2-1.6c1-10.1,3.5-16.3,7.3-17.8c0.6-0.2,1.2-0.4,1.8-0.4c1.8,0,3.9,1.1,6.2,2.3c3.3,1.8,7.5,4,13,4c0.7,0,1.4,0,2.1-0.1
	c6.6-0.6,11.2-4.1,14.8-6.9c2.7-2,5-3.8,7.2-3.8c0.4,0,0.9,0.1,1.3,0.2c2.3,0.7,4.3,3,5.9,6.8l1.6,3.8l2.6-3.1
	c0.1-0.2,0.3-0.3,0.4-0.4c1-1,2.2-1.4,4-1.4c2,0,4.3,0.5,7.1,1.1c3.6,0.8,7.6,1.6,12.2,1.6c0.8,0,1.7,0,2.5-0.1
	c6.2-0.5,10.2-2.6,13.1-4.2c1.9-1,3.3-1.8,4.7-1.8c0.7,0,1.3,0.2,1.9,0.4c5,2.1,7.8,9.8,8.5,12.1c0.7,2.2,1,4.4,1.1,6.7v1.4l1.2,0.7
	c0.8,0.5,1.5,1,2.2,1.5c2.8,2,5.1,4.6,6.8,7.5l1.8,3.1l2.2-2.7c0.1-0.1,0.2-0.3,0.4-0.4c0.9-0.8,2-1.2,3.6-1.2
	c2.1,0,4.8,0.7,7.6,1.3c3.1,0.8,6.6,1.6,10.2,1.8c0.6,0,1.1,0,1.7,0c7.5,0,12.8-2.8,16.7-4.9c1.8-1,3.6-1.9,4.5-1.9
	c0.1,0,0.3,0,0.4,0.1c1,0.8,0.2,4-0.5,7.1c-1.3,5.4-3,12.9,0.8,20c2.5,4.7,6.2,7.1,8.8,8.9c1.2,0.8,2.9,1.9,2.9,2.4
	c0,0.2-0.5,4.2-23.3,8.6l-1.6,0.3l-0.4,1.6c-0.2,0.8-0.4,1.6-0.6,2.3l-0.7,2.1l2.1,0.9c2.1,0.9,4.1,2,5.9,3.4
	c5.1,3.8,8.4,8.9,9.6,14.8l0.1,0.3l0.1,0.3c2.9,5.8,3.3,12.4,1.3,18.5l-0.7,2.1l2.1,0.9c2.1,0.9,4.1,2,5.9,3.4
	c5.9,4.4,9.5,10.7,10,17.6c0.6,7.5-2.3,14.9-8.1,20.9c-6.5,6.7-15.9,10.6-25.6,10.6l0,0c-0.4,0-0.8,0-1.2,0l-4.5-0.1l2.2,3.8
	c1.3,2.2,2.2,4.7,2.7,7.2l0.1,0.3l0.2,0.3c3.8,7.5,3.1,15.1-1.9,20.2c-3.7,3.8-9.3,5.8-15.8,5.8c-3.6,0-7.3-0.6-10.7-1.8l-1.4-0.4
	l-1.1,1c-5,4.6-13.2,7.3-22.4,7.3c-3.9,0-7.9-0.5-11.7-1.4l-1.9-0.5l-0.9,1.7c-0.7,1.4-1.6,2.6-2.6,3.7
	C239.2,398,233.5,400.1,227,400.1z"/>
<path d="M199.5,174.4L199.5,174.4c0.2,0,0.4,0,0.6,0.1c1.5,0.4,3,2.4,4.3,5.4l3.1,7.5l5.2-6.3c0.1-0.1,0.1-0.2,0.2-0.2
	c0.4-0.3,0.8-0.7,2.3-0.7c1.7,0,4,0.5,6.5,1c3.7,0.8,7.9,1.7,12.7,1.7c0.9,0,1.8,0,2.7-0.1c6.7-0.5,11-2.8,14-4.5
	c1.5-0.8,2.8-1.5,3.5-1.5c0.3,0,0.6,0.1,0.9,0.2c2.7,1.1,5.4,5.2,7.1,10.6v0c0.6,1.9,0.9,3.9,1,6l0,2.7l2.3,1.4
	c0.7,0.5,1.4,0.9,2,1.3c2.5,1.8,4.6,4.2,6.2,6.8l3.6,6.1l4.5-5.5c0-0.1,0.1-0.1,0.2-0.2c0.2-0.2,0.5-0.5,1.9-0.5
	c1.8,0,4.4,0.6,7.1,1.3c3.2,0.8,6.8,1.7,10.6,1.9c0.6,0,1.2,0,1.8,0c8.1,0,14-3.1,17.9-5.2c0.5-0.3,1-0.6,1.6-0.8
	c-0.2,1.1-0.5,2.4-0.7,3.4c-1.3,5.8-3.2,13.8,1,21.8c2.8,5.2,6.9,8,9.7,9.8l0.7,0.5c-2.1,1.3-7.3,3.5-20.3,6l-3.2,0.6l-0.7,3.1
	c-0.2,0.7-0.4,1.4-0.6,2l-1.4,4.3l4.2,1.8c1.9,0.8,3.7,1.9,5.4,3.1c4.6,3.5,7.6,8.1,8.7,13.4l0.1,0.7l0.3,0.6
	c2.6,5.2,3,11.1,1.1,16.6l-1.4,4.3l4.2,1.8c1.9,0.8,3.7,1.9,5.4,3.1c5.3,4,8.6,9.6,9,15.8c0.5,6.8-2.1,13.5-7.4,18.9
	c-6.1,6.2-14.8,9.8-23.9,9.8c-0.4,0-0.7,0-1.1,0l-8.9-0.3l4.4,7.7c1.2,2,2,4.2,2.5,6.4l0.1,0.7l0.3,0.6c3.3,6.6,2.8,13-1.4,17.4
	c-3.2,3.3-8.2,5.1-14.1,5.1c-3.4,0-6.7-0.6-10-1.6l-2.8-0.9l-2.1,2c-4.6,4.2-12.2,6.7-20.8,6.7c-3.7,0-7.5-0.5-11.1-1.3l-3.8-0.9
	l-1.8,3.5c-0.6,1.1-1.3,2.2-2.2,3.1c-3.2,3.3-8.2,5.1-14.1,5.1c-6.9,0-14.3-2.5-20.3-7c-4.6-3.4-7.9-7.5-9.7-12l-0.7-1.9l-1.9-0.8
	c-2.4-1.1-4.7-2.4-6.8-4c-2-1.5-3.8-3.2-5.4-5.1l-3-3.6l-3.7,2.8c-3.2,2.4-7.5,3.7-12.5,3.7c-6.9,0-14.3-2.5-20.3-7
	c-6.4-4.8-10.5-11.3-11-17.4c-0.4-3.8,0.9-7.5,3.5-10.2c1.3-1.3,2.8-2.3,4.4-3.1l4.5-2.1l-2.1-4.5c-1.1-2.3-1.7-4.9-1.6-7.5l0.1-3.9
	l-3.7-1c-4.2-1.2-8.2-3.2-11.7-5.8c-6.4-4.8-10.5-11.3-11-17.4c-0.4-3.8,0.9-7.5,3.5-10.2c2.2-2.2,5-3.7,8.1-4.4l2.4-0.6l1-2.3
	c0.2-0.5,0.4-0.9,0.6-1.3l0.9-1.7l-0.5-1.9c-1.2-4.1-0.7-8.5,1.3-12.3l3.5-6.6l-7.4-0.7c-3.9-0.4-6.6-1.4-7.4-2.8
	c-0.5-0.9,0.3-3.3,1.9-7.8c0.6-1.8,1.3-3.7,2.1-6.1c1.7-5,3.1-10.1,4.1-15.2c0.7-3.3,0.9-4.3,2.4-6.5c3.3-4.8,8.6-8.4,15.7-10.7
	l3.1-1l0.3-3.2c0.9-8.7,3-14.6,5.8-15.8c0.3-0.1,0.6-0.2,0.9-0.2c1.2,0,3.1,1,5.1,2c3.6,1.9,8.1,4.2,14.1,4.2c0.8,0,1.5,0,2.3-0.1
	c7.2-0.7,12.1-4.4,16.1-7.4C196.1,176,198.2,174.4,199.5,174.4 M199.6,169.5c-6.6,0-11.5,9.6-22.3,10.7c-0.6,0.1-1.2,0.1-1.8,0.1
	c-8.7,0-13.7-6.3-19.2-6.3c-0.9,0-1.9,0.2-2.7,0.5c-3.3,1.4-7.4,5.6-8.8,19.9c-11,3.6-16,9.3-18.2,12.6c-3.8,5.5-1.8,7-7.1,23
	c-3.5,10.4-5.7,14.1-3.7,17.8c2.2,4,7.8,5,11.3,5.4c-2.7,4.9-3.3,10.6-1.7,16c-0.3,0.5-0.5,1-0.7,1.5c-4,0.9-7.6,2.9-10.5,5.7
	c-9.1,9.3-5.4,25,8.1,35c4,3,8.5,5.2,13.4,6.6c-0.1,3.4,0.6,6.7,2,9.8c-2.2,1-4.1,2.4-5.8,4.1c-9.1,9.3-5.4,25,8.1,35
	c7.1,5.3,15.5,8,23.3,8c5.9,0,11.3-1.5,15.4-4.7c1.9,2.2,4,4.2,6.3,5.9c2.4,1.8,5,3.3,7.7,4.5c2,5.1,5.9,10.1,11.3,14.1
	c7.1,5.3,15.5,8,23.3,8c6.9,0,13.3-2.2,17.6-6.6c1.2-1.3,2.3-2.7,3.1-4.3c4,1,8.1,1.5,12.3,1.5c9.8,0,18.6-2.9,24.1-8
	c3.7,1.2,7.6,1.9,11.5,1.9c6.9,0,13.3-2.2,17.6-6.6c5.9-6.1,6.4-14.8,2.3-23c-0.6-2.8-1.6-5.5-3-7.9c0.4,0,0.8,0,1.3,0
	c10,0,20.1-3.9,27.4-11.3c12.6-13,11.6-31.9-2.2-42.2c-2-1.5-4.1-2.7-6.4-3.7c2.3-6.7,1.8-14.1-1.4-20.4
	c-1.4-6.6-5.1-12.4-10.6-16.3c-2-1.5-4.1-2.7-6.4-3.7c0.3-0.8,0.5-1.6,0.7-2.5c20.7-4,25.2-7.9,25.3-10.9c0.2-4-7.9-4.7-12-12.6
	c-6.1-11.5,3.9-24-1-27.9c-0.6-0.5-1.3-0.7-2-0.7c-4.1,0-10.2,6.8-21.2,6.8c-0.5,0-1,0-1.5,0c-6.7-0.4-13.1-3.2-18-3.2
	c-2.1,0-3.9,0.5-5.3,1.9c-0.2,0.2-0.4,0.4-0.6,0.6c-1.9-3.2-4.5-6-7.5-8.3c-0.8-0.6-1.5-1.1-2.3-1.6c0-2.5-0.4-5-1.2-7.4
	c-0.4-1.3-3.4-10.9-9.9-13.7c-0.9-0.4-1.9-0.6-2.8-0.6c-4.7,0-8,5.2-17.9,6c-0.8,0.1-1.5,0.1-2.3,0.1c-7.7,0-14.2-2.7-19.2-2.7
	c-2.2,0-4.1,0.5-5.7,2.1c-0.2,0.2-0.4,0.4-0.6,0.6c-1.3-3.1-3.6-7.1-7.5-8.3C201,169.6,200.3,169.5,199.6,169.5L199.6,169.5z"/>
<linearGradient id="SVGID_3_" gradientUnits="userSpaceOnUse" x1="-693.9333" y1="160.4346" x2="-635.981" y2="56.3925" gradientTransform="matrix(-1 0 0 -1 -359.9595 354.1532)">
	<stop  offset="0" style="stop-color:#FFFFFF"/>
	<stop  offset="0.15" style="stop-color:#D7D7D7"/>
	<stop  offset="0.49" style="stop-color:#717171"/>
	<stop  offset="0.84" style="stop-color:#000000"/>
</linearGradient>
<path class="st2" d="M322.4,275.6c-2.9,0-5.4-0.9-7-2.5c-0.4-0.5-0.8-1-1.1-1.5l-0.9-1.7l-1.9,0.5c-1.8,0.4-3.7,0.7-5.5,0.7
	c-4.3,0-8.1-1.2-10.4-3.3l-1.1-1l-1.4,0.5c-1.6,0.5-3.3,0.8-4.9,0.8c-2.9,0-5.4-0.9-7-2.5c-2.1-2.1-2.4-5.4-0.7-8.6l0.2-0.3l0.1-0.3
	c0.2-1.1,0.6-2.2,1.2-3.2l2.2-3.8l-4.5,0.1h-0.5c-4.5,0-8.7-1.7-11.9-4.9c-2.6-2.7-4-6.1-3.7-9.4c0.3-3.2,1.9-6.1,4.5-7.9
	c0.8-0.6,1.7-1.1,2.7-1.5l2.1-0.9l-0.7-2.1c-0.9-2.7-0.7-5.7,0.6-8.3l0.1-0.3l0.1-0.3c0.6-2.7,2.1-5.1,4.3-6.7
	c0.8-0.6,1.8-1.1,2.7-1.5l2.1-0.9l-0.7-2.2c-0.1-0.3-0.2-0.6-0.3-1l-0.4-1.6l-1.6-0.3c-6.4-1.2-9-2.4-10.1-3l0.3-0.2
	c1.4-0.9,3.5-2.3,4.8-4.9c2.1-4,1.2-7.9,0.5-10.9c-0.1-0.5-0.3-1.2-0.4-1.7l0.8,0.4c1.9,1,4.9,2.6,8.9,2.6c0.3,0,0.6,0,0.9,0
	c1.8-0.1,3.6-0.5,5.3-0.9c1.1-0.3,2.3-0.5,3.5-0.6c0.7,0,0.9,0.2,0.9,0.3c0,0,0.1,0.1,0.1,0.1l2.2,2.7l1.8-3.1
	c0.8-1.3,1.8-2.5,3.1-3.4c0.3-0.2,0.6-0.5,1-0.7l1.2-0.7l0-1.4c0-1,0.2-2,0.5-3c0.8-2.7,2.2-4.7,3.5-5.3c0.1-0.1,0.3-0.1,0.5-0.1
	c0.6,0.1,1.2,0.4,1.7,0.7c2.1,1.3,4.5,2,7,2.2c0.4,0,0.9,0,1.3,0c2.1-0.1,4.2-0.3,6.3-0.8c1.1-0.3,2.2-0.4,3.3-0.5
	c0.4-0.1,0.8,0.1,1.1,0.3l0.1,0.1l2.6,3.1l1.6-3.8c0.6-1.5,1.4-2.5,2.1-2.7c0.1,0,0.2,0,0.3,0c0.7,0,1.7,0.8,2.8,1.6
	c2,1.5,4.4,3.3,8,3.7c0.4,0,0.8,0.1,1.2,0.1c3,0,5.3-1.2,7.1-2.1c1-0.5,1.9-1,2.5-1c0.1,0,0.3,0,0.4,0.1c1.4,0.6,2.5,3.5,2.9,7.9
	l0.2,1.6l1.5,0.5c3.5,1.2,6.2,2.9,7.8,5.3c0.7,1.1,0.8,1.6,1.2,3.2c0.5,2.6,1.2,5.1,2,7.6c0.4,1.2,0.7,2.2,1,3
	c0.8,2.2,1.2,3.4,1,3.9c-0.4,0.7-1.8,1.2-3.7,1.4l-3.7,0.3l1.8,3.3c1,1.9,1.3,4.1,0.7,6.1l-0.3,0.9l0.4,0.9c0.1,0.2,0.2,0.4,0.3,0.6
	l0.5,1.1l1.2,0.3c1.5,0.3,2.9,1.1,4,2.2c1.3,1.3,2,3.2,1.8,5.1c-0.2,3.1-2.3,6.3-5.5,8.7c-1.8,1.3-3.7,2.3-5.8,2.9l-1.9,0.5l0.1,1.9
	c0,1.3-0.2,2.6-0.8,3.7l-1.1,2.2l2.2,1.1c0.8,0.4,1.6,0.9,2.2,1.5c1.3,1.3,2,3.2,1.8,5.1c-0.2,3.1-2.3,6.3-5.5,8.7
	c-2.9,2.2-6.5,3.4-10.1,3.5c-2.5,0-4.6-0.6-6.2-1.8l-1.9-1.4l-1.5,1.8c-0.8,0.9-1.7,1.8-2.7,2.5c-1,0.8-2.2,1.4-3.4,2l-0.9,0.4
	l-0.4,0.9c-1,2.4-2.7,4.5-4.8,6C329.6,274.3,326.1,275.5,322.4,275.6z"/>
<path d="M336.4,167.1c0.3,0.2,0.7,0.5,1.1,0.8c2.1,1.6,4.9,3.7,9.3,4.2c0.5,0,0.9,0.1,1.4,0.1c3.6,0,6.3-1.4,8.2-2.4
	c0.3-0.2,0.7-0.3,1-0.5c0.4,0.7,0.9,2.2,1.3,5.5l0.3,3.2l3.1,1c3,1,5.2,2.5,6.5,4.4c0.4,0.6,0.5,0.7,0.8,2.3
	c0.5,2.7,1.2,5.3,2.1,7.9c0.4,1.2,0.8,2.2,1.1,3.1c0.2,0.6,0.4,1.3,0.6,1.8c-0.4,0.1-0.8,0.2-1.3,0.2l-7.4,0.7l3.5,6.6
	c0.7,1.3,0.9,2.8,0.5,4.2l-0.5,1.9l0.9,1.7c0.1,0.2,0.2,0.3,0.2,0.5l1,2.2l2.4,0.6c1.1,0.2,2.1,0.8,2.8,1.5c0.8,0.8,1.2,2,1.1,3.2
	c-0.2,2.4-1.9,4.9-4.5,6.9c-1.5,1.1-3.2,2-5,2.5l-3.7,1l0.1,3.9c0,0.9-0.2,1.8-0.5,2.6l-2.1,4.5l4.5,2.1c0.6,0.3,1.1,0.6,1.5,1
	c0.8,0.8,1.2,2,1.1,3.1c-0.2,2.4-1.9,4.9-4.5,6.9c-2.5,1.9-5.5,2.9-8.6,3c-1.7,0.1-3.3-0.4-4.7-1.3L346,255l-3.1,3.6
	c-0.7,0.8-1.5,1.5-2.3,2.2c-0.9,0.7-1.9,1.2-2.9,1.7l-1.8,0.8l-0.7,1.9c-0.9,2-2.3,3.7-4,4.9c-2.5,1.9-5.5,2.9-8.6,3
	c-2.3,0-4.1-0.6-5.2-1.8c-0.3-0.3-0.5-0.6-0.7-0.9l-1.8-3.5l-3.8,0.9c-1.6,0.4-3.3,0.6-4.9,0.6c-3.6,0-6.9-1-8.7-2.7l-2.1-2
	l-2.8,0.9c-1.4,0.4-2.8,0.7-4.2,0.7c-2.3,0-4.1-0.6-5.2-1.8c-1.9-2-0.8-4.7-0.3-5.8l0.3-0.6l0.1-0.7c0.2-0.9,0.5-1.7,0.9-2.4
	l4.4-7.7l-8.9,0.3h-0.5c-3.8,0-7.4-1.5-10.1-4.1c-2.1-2.2-3.2-4.9-3-7.5c0.2-2.4,1.5-4.7,3.5-6.1c0.7-0.5,1.4-0.9,2.2-1.3l4.2-1.8
	l-1.5-4.3c-0.7-2.1-0.6-4.4,0.4-6.4l0.3-0.6l0.1-0.7c0.4-2.1,1.6-3.9,3.4-5.2c0.7-0.5,1.4-0.9,2.2-1.3l4.2-1.8l-1.4-4.3
	c-0.1-0.2-0.2-0.5-0.2-0.8l-0.7-3.1l-3.2-0.6c-2.4-0.5-4.2-0.9-5.6-1.3c0.9-0.9,1.7-2,2.4-3.2c1.8-3.3,1.8-6.6,1.4-9.4
	c2,0.7,4.1,1.1,6.3,1.1c0.3,0,0.7,0,1,0c1.9-0.2,3.9-0.5,5.7-1c0.8-0.2,1.7-0.4,2.5-0.5l4,4.9l3.6-6.1c0.6-1,1.4-1.9,2.4-2.7
	c0.2-0.2,0.5-0.4,0.8-0.5l2.3-1.4l0-2.7c0-0.8,0.1-1.6,0.4-2.3c0.3-1.3,0.9-2.4,1.8-3.4l0.4,0.2c2.4,1.4,5.2,2.3,8,2.5
	c0.5,0,1,0.1,1.5,0.1c2.3-0.1,4.6-0.4,6.8-0.9c0.8-0.2,1.6-0.3,2.5-0.5l4.8,5.8l3.1-7.5C336.1,167.7,336.3,167.4,336.4,167.1
	 M336.2,161.8c-0.3,0-0.7,0-1,0.1c-1.9,0.6-3.1,2.6-3.7,4.1c-0.1-0.1-0.2-0.2-0.3-0.3c-0.8-0.7-1.8-1.1-2.9-1
	c-2.5,0-5.7,1.4-9.6,1.4c-0.4,0-0.8,0-1.1,0c-4.9-0.4-6.6-3-8.9-3c-0.5,0-1,0.1-1.4,0.3c-3.3,1.4-4.7,6.2-4.9,6.8
	c-0.4,1.2-0.6,2.4-0.6,3.7c-0.4,0.2-0.8,0.5-1.2,0.8c-1.5,1.1-2.8,2.5-3.7,4.1c-0.1-0.1-0.2-0.2-0.3-0.3c-0.7-0.6-1.7-1-2.7-0.9
	c-2.5,0-5.6,1.4-9,1.6c-0.3,0-0.5,0-0.8,0c-5.5,0-8.6-3.4-10.6-3.4c-0.4,0-0.7,0.1-1,0.3c-2.4,2,2.6,8.2-0.5,13.9
	c-2.1,3.9-6.1,4.3-6,6.3c0.1,1.5,2.3,3.4,12.6,5.4c0.1,0.4,0.2,0.8,0.3,1.2c-1.1,0.5-2.2,1.1-3.2,1.8c-2.7,2-4.6,4.9-5.3,8.2
	c-1.6,3.2-1.8,6.8-0.7,10.2c-1.1,0.5-2.2,1.1-3.2,1.8c-6.9,5.1-7.4,14.6-1.1,21c3.6,3.6,8.5,5.7,13.7,5.6h0.6
	c-0.7,1.2-1.2,2.6-1.5,4c-2.1,4.1-1.8,8.5,1.1,11.5c2.1,2.2,5.3,3.3,8.8,3.3c1.9,0,3.9-0.3,5.7-0.9c2.8,2.5,7.1,4,12,4
	c2.1,0,4.1-0.3,6.1-0.7c0.4,0.8,0.9,1.5,1.5,2.1c2.1,2.2,5.3,3.3,8.8,3.3c4.2-0.1,8.2-1.4,11.6-4c2.5-1.8,4.4-4.2,5.6-7
	c1.4-0.6,2.6-1.4,3.8-2.3c1.2-0.9,2.2-1.8,3.1-2.9c2.2,1.6,4.9,2.4,7.7,2.3c4.2-0.1,8.2-1.4,11.6-4c6.7-5,8.5-12.8,4-17.5
	c-0.8-0.8-1.8-1.5-2.9-2c0.7-1.5,1.1-3.2,1-4.9c2.4-0.7,4.6-1.8,6.6-3.3c6.7-5,8.5-12.8,4-17.5c-1.4-1.4-3.2-2.4-5.2-2.9
	c-0.1-0.3-0.2-0.5-0.4-0.8c0.8-2.7,0.5-5.5-0.9-8c1.8-0.2,4.5-0.7,5.6-2.7c1-1.8-0.1-3.7-1.8-8.9c-2.6-8-1.7-8.7-3.5-11.4
	c-1.1-1.6-3.6-4.5-9.1-6.3c-0.7-7.1-2.8-9.2-4.4-9.9c-0.4-0.2-0.9-0.3-1.4-0.3c-2.7,0-5.2,3.1-9.6,3.1c-0.3,0-0.6,0-0.9,0
	C341.9,166.6,339.4,161.8,336.2,161.8L336.2,161.8z"/>
<linearGradient id="SVGID_4_" gradientUnits="userSpaceOnUse" x1="150.0725" y1="167.4154" x2="208.0248" y2="63.3733" gradientTransform="matrix(1 0 0 -1 -6.92 354.1532)">
	<stop  offset="0" style="stop-color:#FFFFFF"/>
	<stop  offset="0.15" style="stop-color:#D7D7D7"/>
	<stop  offset="0.49" style="stop-color:#717171"/>
	<stop  offset="0.84" style="stop-color:#000000"/>
</linearGradient>
<path class="st3" d="M154.7,268.6c-3.7-0.1-7.2-1.3-10.1-3.5c-2.1-1.5-3.8-3.6-4.8-6l-0.4-0.9l-0.9-0.4c-1.2-0.5-2.3-1.2-3.4-2
	c-1-0.7-1.9-1.6-2.7-2.5l-1.5-1.8l-1.9,1.4c-1.6,1.2-3.7,1.8-6.2,1.8c-3.6-0.1-7.2-1.3-10.1-3.5c-3.2-2.4-5.2-5.6-5.5-8.7
	c-0.2-1.9,0.5-3.7,1.8-5.1c0.6-0.6,1.4-1.2,2.2-1.5l2.2-1.1l-1-2.3c-0.6-1.2-0.8-2.5-0.8-3.7l0.1-1.9l-1.9-0.5
	c-2.1-0.6-4.1-1.6-5.8-2.9c-3.2-2.4-5.2-5.6-5.5-8.7c-0.2-1.9,0.5-3.7,1.8-5.1c1.1-1.1,2.5-1.9,4-2.2l1.2-0.3l0.5-1.1
	c0.1-0.2,0.2-0.4,0.3-0.6l0.4-0.9l-0.3-0.9c-0.6-2-0.4-4.2,0.7-6.1l1.8-3.3l-3.7-0.3c-1.9-0.2-3.3-0.7-3.7-1.4
	c-0.2-0.4,0.2-1.6,1-3.9c0.3-0.9,0.7-1.9,1-3c0.8-2.5,1.5-5,2-7.6c0.3-1.7,0.5-2.2,1.2-3.2c1.6-2.4,4.3-4.2,7.8-5.3l1.5-0.5l0.2-1.6
	c0.4-4.4,1.5-7.3,2.9-7.9c0.1-0.1,0.3-0.1,0.4-0.1c0.6,0,1.5,0.5,2.5,1c1.8,0.9,4,2.1,7.1,2.1c0.4,0,0.8,0,1.2-0.1
	c3.6-0.4,6.1-2.2,8-3.7c1.1-0.8,2.2-1.6,2.8-1.6c0.1,0,0.2,0,0.3,0c0.7,0.2,1.5,1.2,2.1,2.7l1.6,3.8l2.6-3.1c0,0,0.1-0.1,0.1-0.1
	c0.3-0.3,0.7-0.4,1.1-0.3c1.1,0.1,2.2,0.2,3.3,0.5c2.1,0.5,4.2,0.8,6.3,0.8c0.4,0,0.9,0,1.3,0c2.5-0.2,4.9-1,7-2.2
	c0.5-0.3,1.1-0.6,1.7-0.7c0.2,0,0.3,0,0.5,0.1c1.3,0.6,2.7,2.6,3.5,5.3c0.3,1,0.5,2,0.5,3v1.4l1.2,0.7c0.4,0.2,0.7,0.4,1,0.7
	c1.2,0.9,2.3,2.1,3.1,3.4l1.8,3.1l2.2-2.8l0.1-0.1c0.1-0.1,0.3-0.2,0.9-0.2c1.2,0.1,2.4,0.3,3.5,0.6c1.7,0.5,3.5,0.8,5.3,0.9
	c0.3,0,0.6,0,0.9,0c4,0,7-1.6,8.9-2.6l0.8-0.4c-0.1,0.5-0.2,1.2-0.4,1.7c-0.7,2.9-1.6,6.9,0.5,10.9c1.4,2.6,3.5,4,4.8,4.9l0.3,0.2
	c-1,0.6-3.7,1.7-10.1,3l-1.6,0.3l-0.4,1.6c-0.1,0.4-0.2,0.7-0.3,1l-0.7,2.2l2.1,0.9c1,0.4,1.9,0.9,2.7,1.5c2.2,1.6,3.8,4,4.3,6.7
	l0.1,0.3l0.1,0.3c1.3,2.6,1.5,5.6,0.6,8.3l-0.7,2.2l2.1,0.9c1,0.4,1.9,0.9,2.7,1.5c2.6,1.9,4.2,4.7,4.5,7.9c0.3,3.4-1,6.7-3.7,9.4
	c-3.1,3.2-7.4,4.9-11.9,4.9l0,0h-0.5l-4.4-0.1l2.2,3.8c0.6,1,1,2.1,1.2,3.2l0.1,0.3l0.2,0.3c1.6,3.3,1.4,6.5-0.7,8.6
	c-1.6,1.6-4.1,2.5-7,2.5c-1.7,0-3.4-0.3-4.9-0.8l-1.4-0.5l-1.1,1c-2.3,2.1-6.1,3.3-10.4,3.3c-1.9,0-3.7-0.2-5.5-0.7l-1.9-0.5
	l-0.8,1.7c-0.3,0.6-0.7,1.1-1.1,1.5C160.1,267.7,157.6,268.6,154.7,268.6z"/>
<path d="M140.7,160.1c0.2,0.3,0.3,0.6,0.4,0.9l3.1,7.5l4.9-5.8c0.8,0.1,1.7,0.3,2.5,0.5c2.2,0.5,4.5,0.8,6.8,0.9c0.5,0,1,0,1.5-0.1
	c2.8-0.2,5.6-1.1,8-2.5l0.4-0.2c0.8,1,1.4,2.2,1.8,3.5c0.2,0.7,0.4,1.5,0.4,2.3l0,2.7l2.3,1.4c0.3,0.2,0.6,0.4,0.8,0.5
	c1,0.7,1.8,1.6,2.4,2.7l3.6,6.1l4-4.9c0.9,0.1,1.7,0.3,2.5,0.5c1.9,0.5,3.8,0.8,5.7,1c0.4,0,0.7,0,1,0c2.1,0,4.3-0.4,6.3-1.1
	c-0.4,2.7-0.4,6,1.4,9.4c0.6,1.2,1.4,2.3,2.4,3.2c-1.4,0.4-3.2,0.8-5.6,1.3l-3.2,0.6l-0.7,3.1c-0.1,0.3-0.1,0.6-0.2,0.8l-1.4,4.3
	l4.2,1.8c0.8,0.3,1.5,0.8,2.2,1.3c1.7,1.2,2.9,3.1,3.4,5.2l0.1,0.7l0.3,0.6c1,2,1.1,4.3,0.4,6.4l-1.4,4.3l4.2,1.8
	c0.8,0.3,1.5,0.8,2.2,1.3c2,1.4,3.3,3.7,3.5,6.1c0.2,2.6-0.9,5.3-3,7.5c-2.7,2.7-6.4,4.2-10.2,4.1h-0.5l-8.9-0.3l4.4,7.7
	c0.4,0.8,0.8,1.6,0.9,2.4l0.1,0.7l0.3,0.6c0.6,1.1,1.6,3.8-0.3,5.8c-1.1,1.1-3,1.8-5.2,1.8c-1.4,0-2.8-0.2-4.2-0.7l-2.7-0.9l-2.1,2
	c-1.8,1.7-5.1,2.7-8.7,2.7c-1.7,0-3.3-0.2-4.9-0.6l-3.8-0.9l-1.8,3.5c-0.2,0.3-0.4,0.7-0.7,0.9c-1.1,1.2-3,1.8-5.2,1.8
	c-3.1-0.1-6.2-1.1-8.6-3c-1.8-1.2-3.1-2.9-4-4.9l-0.7-1.9l-1.8-0.8c-1-0.5-2-1-2.9-1.7c-0.8-0.6-1.6-1.4-2.3-2.2l-3-3.6l-3.7,2.8
	c-1.4,0.9-3,1.4-4.7,1.3c-3.1-0.1-6.1-1.1-8.6-3c-2.6-2-4.3-4.5-4.5-6.9c-0.1-1.2,0.2-2.3,1.1-3.2c0.4-0.4,0.9-0.8,1.5-1l4.5-2.1
	l-2.1-4.5c-0.4-0.8-0.6-1.7-0.5-2.6l0.1-3.9l-3.7-1c-1.8-0.5-3.5-1.3-5-2.5c-2.6-2-4.3-4.5-4.5-6.9c-0.1-1.2,0.2-2.3,1.1-3.2
	c0.8-0.7,1.8-1.3,2.9-1.5l2.4-0.6l1-2.2c0.1-0.2,0.2-0.4,0.2-0.5l0.9-1.7l-0.5-1.9c-0.4-1.4-0.3-2.9,0.5-4.2l3.5-6.6l-7.4-0.7
	c-0.4,0-0.8-0.1-1.3-0.2c0.2-0.5,0.4-1.2,0.6-1.8c0.3-0.9,0.7-1.9,1.1-3.1c0.9-2.6,1.6-5.2,2.1-7.9c0.3-1.6,0.4-1.7,0.8-2.3
	c1.3-1.9,3.5-3.4,6.5-4.4l3.1-1l0.3-3.2c0.3-3.3,0.9-4.8,1.3-5.5c0.3,0.1,0.7,0.3,1,0.5c1.9,1,4.6,2.4,8.2,2.4c0.5,0,0.9,0,1.4-0.1
	c4.3-0.4,7.2-2.6,9.3-4.2C140,160.8,140.4,160.5,140.7,160.1 M141.1,154.9c-3.3,0-5.7,4.8-11.1,5.3c-0.3,0-0.6,0-0.9,0
	c-4.3,0-6.8-3.1-9.6-3.1c-0.5,0-0.9,0.1-1.4,0.3c-1.7,0.7-3.7,2.8-4.4,9.9c-5.4,1.8-8,4.6-9.1,6.3c-1.9,2.7-0.9,3.5-3.5,11.4
	c-1.7,5.2-2.8,7-1.8,8.9c1.1,2,3.9,2.5,5.6,2.7c-1.3,2.4-1.6,5.3-0.9,8c-0.1,0.3-0.2,0.5-0.4,0.8c-2,0.4-3.8,1.4-5.2,2.9
	c-4.5,4.6-2.7,12.4,4,17.5c2,1.5,4.2,2.6,6.6,3.3c-0.1,1.7,0.3,3.4,1,4.9c-1.1,0.5-2.1,1.2-2.9,2c-4.5,4.6-2.7,12.5,4,17.5
	c3.3,2.5,7.4,3.9,11.6,4c2.7,0.1,5.4-0.7,7.7-2.3c0.9,1.1,2,2.1,3.1,2.9c1.2,0.9,2.5,1.6,3.8,2.3c1.2,2.8,3.1,5.2,5.6,7
	c3.3,2.5,7.4,3.9,11.6,4c3.5,0,6.6-1.1,8.8-3.3c0.6-0.6,1.1-1.4,1.5-2.1c2,0.5,4.1,0.7,6.1,0.7c4.9,0,9.3-1.4,12-4
	c1.8,0.6,3.8,0.9,5.7,0.9c3.5,0,6.6-1.1,8.8-3.3c3-3,3.2-7.4,1.1-11.5c-0.3-1.4-0.8-2.7-1.5-4h0.6c5.1,0,10-2,13.7-5.6
	c6.3-6.5,5.8-15.9-1.1-21c-1-0.7-2.1-1.3-3.2-1.8c1.1-3.3,0.9-7-0.7-10.2c-0.7-3.3-2.6-6.2-5.3-8.1c-1-0.7-2.1-1.3-3.2-1.8
	c0.1-0.4,0.2-0.8,0.3-1.2c10.3-2,12.6-4,12.6-5.4c0.1-2-3.9-2.4-6-6.3c-3-5.7,1.9-12-0.5-13.9c-0.3-0.2-0.6-0.4-1-0.3
	c-2,0-5.1,3.4-10.6,3.4c-0.3,0-0.5,0-0.8,0c-3.3-0.2-6.5-1.6-9-1.6c-1-0.1-1.9,0.3-2.7,0.9c-0.1,0.1-0.2,0.2-0.3,0.3
	c-1-1.6-2.2-3-3.7-4.1c-0.4-0.3-0.8-0.5-1.2-0.8c0-1.2-0.2-2.5-0.6-3.7c-0.2-0.7-1.7-5.4-4.9-6.8c-0.4-0.2-0.9-0.3-1.4-0.3
	c-2.3,0-4,2.6-8.9,3c-0.4,0-0.8,0-1.1,0c-3.8,0-7.1-1.4-9.6-1.4c-1.1-0.1-2.1,0.3-2.9,1c-0.1,0.1-0.2,0.2-0.3,0.3
	c-0.6-1.6-1.8-3.6-3.7-4.1C141.6,154.9,141.3,154.9,141.1,154.9L141.1,154.9z"/>
<linearGradient id="SVGID_5_" gradientUnits="userSpaceOnUse" x1="220.2004" y1="269.2845" x2="327.3047" y2="77.0005" gradientTransform="matrix(1 0 0 -1 -6.92 354.1532)">
	<stop  offset="0" style="stop-color:#FFFFFF"/>
	<stop  offset="0.15" style="stop-color:#D7D7D7"/>
	<stop  offset="0.49" style="stop-color:#717171"/>
	<stop  offset="0.84" style="stop-color:#000000"/>
</linearGradient>
<path class="st4" d="M234.3,236.5c-6.7,0-13.8-2.5-19.6-6.7c-4.4-3.3-7.7-7.3-9.4-11.7l-0.4-0.9l-0.9-0.4c-2.3-1-4.5-2.3-6.5-3.8
	c-1.9-1.4-3.7-3.1-5.3-4.9l-1.5-1.8l-1.9,1.4c-3.2,2.4-7.5,3.7-12.5,3.7c-6.7,0-13.8-2.4-19.5-6.7c-6.4-4.7-10.3-11-10.8-17.2
	c-0.4-4,1-7.9,3.8-10.8c1.3-1.3,2.9-2.4,4.6-3.2l2.2-1.1l-1.1-2.2c-1.2-2.4-1.7-5-1.6-7.7l0.1-1.9l-1.9-0.5c-4.1-1.2-7.9-3-11.3-5.5
	c-6.3-4.7-10.3-11-10.8-17.2c-0.4-4,1-7.9,3.8-10.8c2.3-2.3,5.2-3.8,8.3-4.5l1.2-0.3l0.5-1.1c0.2-0.5,0.4-0.9,0.6-1.3l0.4-0.9
	l-0.3-0.9c-1.2-4.2-0.7-8.7,1.4-12.6l1.8-3.3l-3.7-0.3c-3-0.3-6.9-1.1-8.3-3.6c-0.9-1.6-0.3-3.5,1.6-8.7c0.6-1.6,1.2-3.4,1.9-5.4
	c1.5-4.4,2.7-9,3.7-13.6c0.6-3.1,0.9-4.3,2.5-6.6c3.2-4.7,8.3-8.2,15.2-10.4l1.5-0.5l0.2-1.6c0.9-9.1,3.1-14.6,6.5-15.9
	c0.5-0.2,1-0.3,1.5-0.3c1.6,0,3.4,1,5.5,2.1c3.1,1.6,6.9,3.6,11.9,3.6c0.6,0,1.3,0,1.9-0.1c6-0.6,10.2-3.7,13.5-6.3
	c2.4-1.8,4.5-3.4,6.4-3.4c0.4,0,0.7,0.1,1.1,0.2c2,0.6,3.7,2.6,5.2,6.1l1.6,3.8l2.6-3.1c0.1-0.1,0.2-0.3,0.4-0.4
	c0.9-0.8,1.9-1.2,3.5-1.2c1.8,0,3.9,0.5,6.3,1c3.3,0.7,6.9,1.5,11.1,1.5c0.8,0,1.5,0,2.3-0.1c5.7-0.4,9.3-2.4,11.9-3.8
	c1.7-0.9,3-1.6,4.1-1.6c0.6,0,1.1,0.1,1.6,0.4c4.5,1.9,6.9,8.8,7.6,10.8c0.6,1.9,0.9,4,1,6v1.4l1.2,0.7c0.7,0.4,1.4,0.9,1.9,1.3
	c2.5,1.8,4.6,4.1,6.1,6.8l1.8,3.1l2.2-2.8c0.1-0.1,0.2-0.2,0.3-0.3c0.7-0.7,1.7-1,3.1-1c1.9,0,4.3,0.6,6.9,1.2
	c2.8,0.7,6,1.5,9.3,1.6c0.5,0,1,0,1.5,0c6.8,0,11.7-2.6,15.3-4.5c1.6-0.8,3.2-1.7,4-1.7c0.1,0,0.2,0,0.2,0.1c0.8,0.6,0,3.7-0.5,6.2
	c-1.1,4.9-2.7,11.8,0.8,18.3c2.3,4.3,5.6,6.5,8.1,8.1c0.9,0.6,2.4,1.6,2.5,2c0,0-0.4,3.6-20.9,7.5l-1.6,0.3l-0.4,1.6
	c-0.2,0.7-0.4,1.4-0.6,2L310,104l2.1,0.9c1.9,0.8,3.6,1.8,5.3,3c4.4,3.2,7.5,7.9,8.6,13.3l0.1,0.3l0.2,0.3c2.6,5.2,3,11.1,1.1,16.6
	l-0.7,2.2l2.1,0.9c1.9,0.8,3.6,1.8,5.3,3c5.3,4,8.5,9.6,9,15.8c0.5,6.7-2,13.4-7.3,18.7c-6.1,6.1-14.4,9.5-23,9.5l0,0
	c-0.4,0-0.7,0-1.1,0l-4.5-0.1l2.2,3.8c1.2,2,2,4.2,2.4,6.4l0.1,0.3l0.2,0.3c3.4,6.7,2.8,13.5-1.7,18c-3.3,3.4-8.3,5.2-14.2,5.2
	c-3.3,0-6.5-0.6-9.6-1.6l-1.4-0.5l-1.1,1c-4.5,4.2-11.9,6.6-20.2,6.6c-3.5,0-7.1-0.4-10.5-1.3l-1.9-0.5l-0.9,1.7
	c-0.6,1.2-1.4,2.3-2.4,3.3C245.1,234.6,240.1,236.5,234.3,236.5z"/>
<path d="M209.4,32.9L209.4,32.9c0.1,0,0.3,0,0.4,0.1c1.2,0.3,2.5,2,3.6,4.6l3.1,7.5l5.2-6.3l0.2-0.2c0.2-0.2,0.5-0.5,1.8-0.5
	c1.5,0,3.5,0.4,5.8,0.9c3.4,0.7,7.2,1.5,11.6,1.5c0.8,0,1.6,0,2.4-0.1c6.2-0.5,10.1-2.6,12.9-4.1c1.2-0.7,2.4-1.3,3-1.3
	c0.2,0,0.4,0.1,0.7,0.2c2.3,1,4.7,4.6,6.2,9.3v0c0.5,1.7,0.8,3.5,0.8,5.3l0,2.7l2.3,1.4c0.7,0.4,1.2,0.8,1.8,1.2
	c2.2,1.6,4.1,3.7,5.5,6l3.6,6.1l4.5-5.5c0,0,0.1-0.1,0.1-0.1c0.1-0.1,0.3-0.3,1.4-0.3c1.6,0,3.9,0.6,6.3,1.1
	c2.9,0.7,6.2,1.5,9.7,1.7c0.6,0,1.1,0,1.7,0c7.4,0,12.8-2.9,16.4-4.8l0.6-0.3c-0.1,0.7-0.3,1.5-0.5,2.2c-1.2,5.3-2.9,12.7,1,20
	c2.6,4.8,6.4,7.4,8.9,9c-2.2,1.1-7,3-17.5,5l-3.2,0.6l-0.7,3.1c-0.2,0.7-0.3,1.3-0.5,1.8l-1.4,4.3l4.2,1.8c1.7,0.7,3.3,1.7,4.8,2.8
	c3.9,2.8,6.7,7,7.7,11.8l0.1,0.7l0.3,0.6c2.3,4.6,2.6,9.9,1,14.7l-1.4,4.3l4.2,1.8c1.7,0.7,3.3,1.6,4.8,2.7c4.7,3.5,7.6,8.5,8,14
	c0.5,6-1.9,11.9-6.6,16.8c-5.6,5.6-13.3,8.8-21.3,8.7c-0.3,0-0.7,0-1,0l-8.9-0.3l4.4,7.7c1,1.8,1.8,3.7,2.2,5.7l0.1,0.7l0.3,0.6
	c2.9,5.7,2.4,11.4-1.2,15.2c-2.8,2.9-7.2,4.5-12.4,4.5c-3,0-6-0.5-8.8-1.5l-2.7-0.9l-2.1,2c-4.1,3.7-10.8,5.9-18.5,5.9
	c-3.4,0-6.7-0.4-10-1.2l-3.8-0.9l-1.8,3.5c-0.5,1-1.1,1.9-1.9,2.7c-2.8,2.9-7.2,4.5-12.4,4.5c-6.2,0-12.8-2.3-18.1-6.2
	c-4-3-7-6.7-8.6-10.7l-0.7-1.9l-1.8-0.8c-2.1-1-4.2-2.1-6-3.5c-1.8-1.3-3.4-2.8-4.9-4.5l-3-3.6l-3.7,2.8c-2.8,2.1-6.6,3.2-11,3.2
	c-6.2,0-12.8-2.3-18.1-6.2c-5.7-4.2-9.3-10-9.8-15.4c-0.3-3.3,0.8-6.5,3.1-8.9c1.1-1.1,2.4-2,3.8-2.7l4.5-2.1l-2.1-4.5
	c-1-2.1-1.4-4.3-1.4-6.6l0.1-3.9l-3.7-1c-3.8-1.1-7.3-2.8-10.5-5.1c-5.7-4.2-9.3-10-9.8-15.4c-0.3-3.3,0.8-6.5,3.1-8.9
	c2-1.9,4.4-3.3,7.1-3.8l2.4-0.6l1-2.2c0.2-0.4,0.4-0.8,0.5-1.1l0.9-1.7l-0.5-1.9c-1-3.6-0.6-7.5,1.2-10.7l3.5-6.6l-7.4-0.7
	c-4-0.4-5.9-1.4-6.3-2.3c-0.4-0.7,0.6-3.5,1.8-6.7c0.6-1.6,1.2-3.4,1.9-5.5c1.5-4.5,2.8-9.2,3.7-13.9c0.6-3,0.8-3.8,2.1-5.7
	c2.9-4.2,7.6-7.4,13.9-9.5l3.1-1l0.3-3.2c0.9-9.1,3.1-13.1,4.9-13.9c0.2-0.1,0.4-0.1,0.6-0.1c1,0,2.6,0.9,4.4,1.8
	c3.3,1.7,7.4,3.9,13,3.9c0.7,0,1.4,0,2.1-0.1c6.7-0.7,11.4-4.2,14.8-6.8C206.4,34.3,208.3,32.9,209.4,32.9 M209.4,27.9
	c-5.9,0-10.4,8.7-20.2,9.7c-0.6,0.1-1.1,0.1-1.7,0.1c-7.9,0-12.4-5.7-17.4-5.7c-0.8,0-1.7,0.2-2.5,0.5c-3,1.2-6.7,5.1-8,18
	c-9.9,3.2-14.4,8.4-16.5,11.4c-3.4,5-1.7,6.3-6.4,20.8c-3.1,9.4-5.2,12.8-3.3,16.1c2,3.6,7,4.6,10.2,4.9c-2.4,4.4-3,9.6-1.5,14.5
	c-0.2,0.5-0.4,0.9-0.7,1.4c-3.6,0.8-6.9,2.6-9.5,5.2c-8.2,8.4-4.9,22.6,7.3,31.7c3.6,2.7,7.7,4.7,12.1,5.9c-0.1,3.1,0.5,6.1,1.9,8.9
	c-2,0.9-3.7,2.2-5.3,3.7c-8.2,8.4-4.9,22.6,7.3,31.7c6.4,4.8,14.1,7.2,21,7.2c5.3,0,10.2-1.4,14-4.2c1.7,2,3.6,3.8,5.7,5.3
	c2.2,1.6,4.5,3,7,4.1c1.9,4.6,5.3,9.1,10.3,12.8c6.4,4.8,14.1,7.2,21,7.2c6.3,0,12.1-2,15.9-5.9c1.1-1.1,2.1-2.5,2.8-3.9
	c3.6,0.9,7.4,1.3,11.1,1.3c8.9,0,16.9-2.6,21.9-7.2c3.4,1.1,6.9,1.7,10.4,1.7c6.3,0,12-2,15.9-5.9c5.4-5.5,5.8-13.5,2.1-20.8
	c-0.5-2.5-1.4-5-2.7-7.2c0.4,0,0.8,0,1.1,0c9,0,18.2-3.5,24.8-10.2c11.4-11.7,10.5-28.8-2-38.2c-1.8-1.3-3.7-2.4-5.8-3.3
	c2.1-6.1,1.6-12.7-1.3-18.5c-1.2-6-4.6-11.2-9.6-14.8c-1.8-1.3-3.7-2.4-5.8-3.3c0.2-0.7,0.5-1.5,0.6-2.2c18.7-3.6,22.8-7.2,22.9-9.8
	c0.2-3.6-7.1-4.3-10.9-11.4c-5.5-10.4,3.5-21.7-0.9-25.3c-0.5-0.4-1.1-0.6-1.8-0.6c-3.7,0-9.2,6.2-19.2,6.2c-0.5,0-0.9,0-1.4,0
	c-6-0.3-11.8-2.9-16.3-2.9c-1.9,0-3.5,0.4-4.8,1.7c-0.2,0.2-0.4,0.4-0.5,0.6c-1.7-2.9-4-5.5-6.8-7.5c-0.7-0.5-1.4-1-2.1-1.4
	c0-2.3-0.4-4.5-1.1-6.7c-0.4-1.2-3-9.9-9-12.4c-0.8-0.4-1.7-0.6-2.6-0.6c-4.2,0-7.3,4.7-16.2,5.4c-0.7,0-1.4,0.1-2.1,0.1
	c-7,0-12.9-2.5-17.4-2.5c-2,0-3.7,0.5-5.2,1.9c-0.2,0.2-0.4,0.4-0.5,0.6c-1.2-2.8-3.2-6.4-6.8-7.5C210.6,28,210,27.9,209.4,27.9
	L209.4,27.9z"/>
<path d="M339.4,119.5c4.5,11.2,11.4,28.6,6,44.6c-6,18-24.9,26.6-32.5,19c-6.9-6.9,0.4-22.2-3.3-57.3c-3.4-32-12.3-46.2-8.5-49.9
	C306.3,70.8,328.2,91.4,339.4,119.5z"/>
<linearGradient id="SVGID_6_" gradientUnits="userSpaceOnUse" x1="389.5773" y1="123.8952" x2="433.3124" y2="123.8952" gradientTransform="matrix(0.994 -0.1094 -0.1094 -0.994 -64.7784 299.4221)">
	<stop  offset="0" style="stop-color:#DDC3DD"/>
	<stop  offset="1" style="stop-color:#000000"/>
</linearGradient>
<path class="st5" d="M332.2,124.2c3.1,9.7,8,24.8,4.9,38.4c-3.4,15.3-15.4,22.3-20.4,15.5c-4.6-6.1-0.3-19.1-3.5-49.3
	c-3-27.6-9-39.9-6.7-43C309.7,81.6,324.3,99.8,332.2,124.2z"/>
<path d="M264.6,165.2c-1.3,3.3-6.8,0.9-15.8,6.8c-6.9,4.5-7.7,8.6-11.7,8.6c-4.8,0-5.7-5.7-13-10.2c-9-5.5-15.9-1.8-17.3-5.1
	c-2.3-5.4,11.6-24.2,28.9-24.2C252.8,140.9,267,159.2,264.6,165.2z"/>
<rect x="236.2" y="142.4" width="2" height="53.9"/>
<path d="M191.6,191.8l-0.1-2c1.4,1,20.4,13.7,50.7,11c26-2.3,40.1-14.2,42.1-15.9l0.1,2c-6.3,2.8-24.3,9.9-49.7,10.6
	C213.7,198.1,198.4,194,191.6,191.8z"/>
<path class="st6" d="M280.2,94.5c2.5,0,7.9,14.6,1.4,21.9c-4.7,5.2-14.9,6.1-16.4,3.8c-0.1-0.1-0.1-0.2-0.1-0.3
	c-0.3-2.8,4.9-6.4,8-9.6C279.9,103.2,278.3,94.4,280.2,94.5z"/>
<path class="st7" d="M7.7,113.3"/>
<path class="st7" d="M194.7,103.9"/>
<linearGradient id="SVGID_7_" gradientUnits="userSpaceOnUse" x1="257.3388" y1="257.7477" x2="320.4012" y2="217.8464" gradientTransform="matrix(1 0 0 -1 -6.92 354.1532)">
	<stop  offset="0.31" style="stop-color:#000000"/>
	<stop  offset="0.39" style="stop-color:#3C3C3C"/>
	<stop  offset="0.47" style="stop-color:#717171"/>
	<stop  offset="0.55" style="stop-color:#9D9D9D"/>
	<stop  offset="0.63" style="stop-color:#BFBFBF"/>
	<stop  offset="0.7" style="stop-color:#D7D7D7"/>
	<stop  offset="0.77" style="stop-color:#E6E6E6"/>
	<stop  offset="0.82" style="stop-color:#EBEBEB"/>
</linearGradient>
<path class="st8" d="M303.8,102.6c3.6,9.4-10,31.7-31.7,31.7s-35.3-22.3-31.7-31.7c3.7-9.5,23-10.5,28.8-10.7
	C271.9,91.8,299.3,91,303.8,102.6z"/>
<path d="M131.6,123.6c-4.5,11.2-11.4,28.6-6,44.6c6,18,24.9,26.6,32.5,19c6.9-6.9-0.4-22.2,3.3-57.3c3.4-32,12.3-46.2,8.5-50
	C164.7,74.9,142.8,95.5,131.6,123.6z"/>
<linearGradient id="SVGID_8_" gradientUnits="userSpaceOnUse" x1="-866.1914" y1="256.1482" x2="-822.4514" y2="256.1482" gradientTransform="matrix(-0.99 -0.11 0.11 -0.99 -723.129 296.1081)">
	<stop  offset="0" style="stop-color:#DDC3DD"/>
	<stop  offset="1" style="stop-color:#000000"/>
</linearGradient>
<path class="st9" d="M138.8,128.3c-3.1,9.7-8,24.8-4.9,38.4c3.5,15.3,15.4,22.3,20.4,15.5c4.6-6.1,0.3-19.1,3.5-49.3
	c3-27.6,9-39.9,6.7-43C161.3,85.7,146.7,103.9,138.8,128.3z"/>
<linearGradient id="SVGID_9_" gradientUnits="userSpaceOnUse" x1="-1003.2559" y1="259.2207" x2="-940.1885" y2="219.3194" gradientTransform="matrix(-1 0 0 -1 -782.1695 354.1532)">
	<stop  offset="0.32" style="stop-color:#000000"/>
	<stop  offset="0.39" style="stop-color:#3C3C3C"/>
	<stop  offset="0.47" style="stop-color:#717171"/>
	<stop  offset="0.55" style="stop-color:#9D9D9D"/>
	<stop  offset="0.62" style="stop-color:#BFBFBF"/>
	<stop  offset="0.69" style="stop-color:#D7D7D7"/>
	<stop  offset="0.76" style="stop-color:#E6E6E6"/>
	<stop  offset="0.81" style="stop-color:#EBEBEB"/>
</linearGradient>
<path class="st10" d="M167.7,101.2c-3.6,9.4,10,31.7,31.7,31.7s35.3-22.3,31.7-31.7c-3.7-9.5-23-10.5-28.8-10.7
	C199.6,90.3,172.2,89.5,167.7,101.2z"/>
<path class="st11" d="M302.7,249.6l12.6,6.4c-12-10.1-20.9-23.4-25.5-38.4c-0.2,2.1-0.5,4.3-0.7,6.4c-0.3,5.9,1.2,11.7,4.4,16.6
	C295.9,244.3,299,247.4,302.7,249.6z"/>
<rect x="216" y="102.4" width="37.6" height="3"/>
<linearGradient id="SVGID_10_" gradientUnits="userSpaceOnUse" x1="226.8729" y1="321.8322" x2="298.2164" y2="193.7484" gradientTransform="matrix(1 0 0 -1 -6.92 354.1532)">
	<stop  offset="0" style="stop-color:#FFFFFF"/>
	<stop  offset="0.15" style="stop-color:#D7D7D7"/>
	<stop  offset="0.49" style="stop-color:#717171"/>
	<stop  offset="0.84" style="stop-color:#000000"/>
</linearGradient>
<path class="st12" d="M169.8,106.4c-2.2,0-4-0.7-5.2-2c-0.3-0.4-0.6-0.8-0.8-1.2l-0.7-1.4l-1.5,0.4c-1.4,0.3-2.8,0.5-4.2,0.5
	c-3.2,0-6-0.9-7.7-2.6l-0.9-0.8l-1.1,0.4c-1.2,0.4-2.4,0.6-3.7,0.6c-2.2,0-4-0.7-5.2-1.9c-1.6-1.7-1.8-4.2-0.5-6.8l0.1-0.2l0-0.3
	c0.2-0.9,0.5-1.7,0.9-2.5l1.7-3l-3.5,0.1h-0.4c-3.4,0-6.6-1.4-8.9-3.8c-1.9-2-3-4.7-2.8-7.4c0.2-2.4,1.4-4.7,3.4-6.2
	c0.6-0.5,1.3-0.9,2-1.2l1.6-0.7l-0.5-1.7c-0.7-2.1-0.6-4.5,0.4-6.5l0.1-0.2l0-0.3c0.4-2.1,1.6-3.9,3.3-5.2c0.6-0.5,1.3-0.9,2-1.2
	l1.6-0.7l-0.5-1.7c-0.1-0.2-0.1-0.5-0.2-0.8l-0.3-1.3l-1.3-0.3c-4.8-1-6.8-1.8-7.6-2.3l0.2-0.2c1.5-0.9,2.8-2.3,3.7-3.8
	c1.6-3.1,0.9-6.2,0.4-8.5c-0.1-0.4-0.2-0.8-0.3-1.2l0.4,0.2c1.5,0.8,3.7,2.1,6.8,2.1c0.2,0,0.5,0,0.7,0c1.4-0.1,2.7-0.4,4-0.7
	c0.9-0.3,1.7-0.4,2.6-0.5c0.5,0,0.6,0.1,0.6,0.2l0,0.1l1.8,2.3l1.5-2.6c0.6-1,1.4-1.9,2.3-2.6c0.2-0.2,0.5-0.3,0.7-0.5l0.9-0.6v-1.1
	c0-0.8,0.1-1.6,0.4-2.3c0.6-2.1,1.7-3.7,2.6-4.1c0.1,0,0.2-0.1,0.3-0.1c0.4,0.1,0.9,0.3,1.2,0.5c1.6,1,3.5,1.6,5.4,1.8
	c0.3,0,0.7,0,1,0c1.6,0,3.2-0.3,4.8-0.7c0.8-0.2,1.6-0.3,2.4-0.4c0.5,0,0.6,0.1,0.8,0.2l0.1,0.1l2.1,2.6l1.3-3.1
	c0.5-1.2,1-1.9,1.6-2.1c0.1,0,0.1,0,0.2,0c0.5,0,1.3,0.6,2.1,1.3c1.4,1.1,3.4,2.6,6.1,2.9c0.3,0,0.6,0,0.9,0c2.3,0,4-0.9,5.4-1.7
	c0.6-0.4,1.2-0.6,1.8-0.8c0.1,0,0.2,0,0.3,0.1c0.5,0.2,0.9,0.9,1.3,1.9l1,2.8l2.2-1.9c0.8-0.7,1.5-1.6,2-2.6
	c1.6-3.1,0.9-6.2,0.4-8.5c-0.1-0.4-0.2-0.8-0.3-1.2l0.4,0.2c1.5,0.8,3.7,2,6.8,2c0.2,0,0.5,0,0.7,0c1.4-0.1,2.7-0.4,4-0.7
	c0.9-0.3,1.7-0.4,2.6-0.5c0.5,0,0.6,0.1,0.6,0.2c0,0,0,0,0.1,0.1l1.8,2.3l1.4-2.5c0.6-1,1.4-1.9,2.3-2.6c0.2-0.2,0.5-0.3,0.7-0.5
	l0.9-0.6V7.6c0-0.8,0.1-1.6,0.4-2.3c0.6-2.1,1.7-3.7,2.6-4.1c0.1,0,0.2-0.1,0.3-0.1c0.4,0.1,0.9,0.3,1.2,0.6c1.6,1,3.5,1.6,5.4,1.8
	c0.3,0,0.7,0,1,0c1.6,0,3.2-0.3,4.8-0.7c0.8-0.2,1.6-0.4,2.4-0.4c0.5,0,0.6,0.1,0.8,0.2c0,0,0.1,0.1,0.1,0.1l2.1,2.6l1.3-3.1
	c0.5-1.2,1-1.9,1.6-2.1c0.1,0,0.1,0,0.2,0c0.5,0,1.3,0.6,2.1,1.3c1.4,1.1,3.4,2.6,6.1,2.9c0.3,0,0.6,0,0.9,0c2.3,0,4-0.9,5.4-1.7
	c0.6-0.4,1.2-0.6,1.8-0.8c0.1,0,0.2,0,0.3,0.1c0.4,0.2,1.7,1.1,2.1,6.1l0.1,1.3l1.2,0.4c2.7,0.9,4.6,2.3,5.8,4.1
	c0.6,0.8,0.6,1.2,0.9,2.5c0.4,2,0.9,4,1.5,5.9c0.3,0.9,0.6,1.7,0.8,2.4c0.6,1.8,0.9,2.7,0.7,3.1c-0.1,0.1-0.1,0.2-0.2,0.3l-4.9,4.3
	l6.5-0.9c0.2,0,0.4,0,0.6,0c0.5,0,0.6,0.1,0.6,0.2l0.1,0.1l1.8,2.3l1.5-2.6c0.6-1,1.4-1.9,2.3-2.6c0.2-0.2,0.5-0.3,0.7-0.5l0.9-0.6
	v-1.1c0-0.8,0.2-1.6,0.4-2.4c0.6-2.1,1.7-3.7,2.6-4.1c0.1,0,0.2-0.1,0.3-0.1c0.4,0.1,0.9,0.3,1.2,0.6c1.6,1,3.5,1.6,5.4,1.8
	c0.3,0,0.7,0,1,0c1.6,0,3.2-0.2,4.8-0.6c0.8-0.2,1.6-0.3,2.4-0.4c0.5,0,0.6,0.1,0.8,0.2l0.1,0.1l2.1,2.7l1.3-3.2
	c0.5-1.2,1-1.9,1.6-2.1c0.1,0,0.1,0,0.2,0c0.5,0,1.3,0.6,2.1,1.3c1.4,1.1,3.4,2.6,6.1,2.9c0.3,0,0.6,0,0.9,0c2.3,0,4-0.9,5.4-1.7
	c0.7-0.4,1.4-0.8,1.8-0.8c0.1,0,0.2,0,0.3,0.1c0.4,0.2,1.7,1.1,2.1,6.1l0.1,1.3l1.2,0.4c2.7,0.9,4.6,2.3,5.8,4.1
	c0.6,0.8,0.6,1.2,0.9,2.5c0.4,2,0.9,4,1.5,5.9c0.3,0.9,0.6,1.7,0.8,2.4c0.6,1.8,0.9,2.7,0.7,3.1c-0.3,0.5-1.3,0.9-2.7,1.1l-2.9,0.3
	l1.3,2.6c0.8,1.5,0.9,3.2,0.5,4.8l-0.2,0.7l0.3,0.7c0.1,0.2,0.2,0.3,0.2,0.5l0.4,0.9l1,0.2c1.1,0.3,2.2,0.9,3,1.7
	c1,1.1,1.5,2.5,1.3,4c-0.2,2.4-1.7,4.9-4.1,6.8c-1.3,1-2.8,1.8-4.4,2.2l-1.5,0.4l0,1.5c0,1-0.2,2-0.6,2.9l-0.8,1.8l1.7,0.8
	c0.6,0.3,1.2,0.7,1.6,1.2c1,1.1,1.5,2.5,1.3,4c-0.2,2.4-1.7,4.9-4.1,6.8c-2.2,1.7-4.8,2.6-7.6,2.7l0,0c-1.6,0.1-3.3-0.4-4.6-1.4
	l-1.5-1.2l-1.2,1.5c-0.6,0.7-1.3,1.4-2,2c-0.8,0.6-1.6,1.1-2.5,1.5l-0.7,0.3l-0.3,0.7c-0.8,1.9-2,3.5-3.6,4.7
	c-2.2,1.7-4.8,2.6-7.6,2.7c-2.2,0-4-0.7-5.2-1.9c-0.3-0.4-0.6-0.8-0.8-1.2l-0.7-1.4l-1.5,0.4c-1.4,0.3-2.8,0.5-4.2,0.5
	c-3.2,0-6-0.9-7.7-2.6l-0.9-0.8l-1.1,0.4c-1.2,0.4-2.4,0.6-3.7,0.6c-2.2,0-4-0.7-5.2-1.9c-1.6-1.7-1.8-4.2-0.5-6.8l0.1-0.2l0-0.3
	c0.2-0.9,0.5-1.7,0.9-2.5l1.7-3.1l-3.5,0.1h-0.4c-3.4,0-6.6-1.4-8.9-3.8c-1.3-1.4-2.2-3.1-2.6-4.9l-0.8-3.7l-2.6,2.8
	c-0.5,0.5-1,1-1.5,1.4c-0.8,0.6-1.6,1.1-2.5,1.5l-0.7,0.3l-0.3,0.7c-0.8,1.9-2,3.5-3.6,4.7c-2.2,1.7-4.8,2.6-7.6,2.7
	c-2.2,0-4-0.7-5.2-1.9c-0.3-0.4-0.6-0.8-0.8-1.2l-0.7-1.4l-1.5,0.4c-1.4,0.3-2.8,0.5-4.2,0.5c-3.2,0-6-0.9-7.7-2.6l-0.9-0.8
	l-1.1,0.4c-1.2,0.4-2.4,0.6-3.7,0.6c-2.2,0-4-0.7-5.2-1.9c-1-1.1-1.5-2.6-1.3-4.2l0.3-3.2l-3,1.1c-0.3,0.1-0.6,0.2-0.9,0.3l-1.5,0.4
	l0,1.5c0,1-0.2,2-0.6,3l-0.8,1.7l1.7,0.8c0.6,0.3,1.2,0.7,1.6,1.2c1,1.1,1.5,2.5,1.3,4c-0.2,2.4-1.7,4.9-4.1,6.8
	c-2.2,1.7-4.8,2.7-7.6,2.7c-1.6,0.1-3.3-0.4-4.6-1.4l-1.5-1.2l-1.2,1.5c-0.6,0.7-1.3,1.4-2,2c-0.8,0.6-1.6,1.1-2.5,1.5l-0.7,0.3
	l-0.3,0.7c-0.8,1.9-2,3.5-3.6,4.7C175.2,105.3,172.6,106.3,169.8,106.4z M203.9,30.6c0.5,0.3,0.9,0.7,1.3,1.1l1,1l1.3-0.6l0.2-0.1
	l1.6-0.7l-0.5-1.7c-0.1-0.2-0.2-0.5-0.2-0.8l-0.3-1.3l-1.3-0.3c-0.5-0.1-1-0.2-1.5-0.3l-9.2-2L203.9,30.6z"/>
<path d="M250.4,2.4l0.5,0.4c1.5,1.2,3.8,3,7.2,3.3c0.4,0,0.7,0.1,1.1,0.1c2.8,0,4.9-1.2,6.4-1.9L266,4c0.5,1.3,0.8,2.7,0.9,4.1
	l0.2,2.6l2.4,0.8c2.2,0.8,3.9,1.9,4.8,3.4c0.3,0.5,0.4,0.6,0.6,1.8c0.4,2.1,1,4.1,1.6,6.2c0.3,0.9,0.6,1.7,0.8,2.4
	c0.2,0.6,0.4,1.2,0.5,1.7l-9.3,8.2l12.9-1.8l3.2,4l2.9-5.1c0.5-0.8,1.1-1.5,1.8-2.1c0.2-0.1,0.4-0.3,0.6-0.4l1.8-1.1l0-2.1
	c0-0.6,0.1-1.2,0.3-1.8c0.2-0.9,0.6-1.8,1.2-2.5l0.1,0.1c1.9,1.1,4,1.8,6.2,2c0.4,0,0.8,0,1.2,0c1.8,0,3.5-0.3,5.2-0.7
	c0.6-0.1,1.2-0.3,1.7-0.3l3.9,4.8l2.5-6.3c0.1-0.2,0.1-0.3,0.2-0.4l0.5,0.4c1.5,1.2,3.8,3,7.2,3.3c0.4,0,0.7,0.1,1.1,0.1
	c2.8,0,4.9-1.2,6.4-1.9l0.5-0.2c0.5,1.3,0.8,2.7,0.9,4.1l0.2,2.6l2.4,0.8c2.2,0.8,3.9,1.9,4.8,3.4c0.3,0.5,0.3,0.6,0.6,1.8
	c0.4,2.1,0.9,4.1,1.6,6.1c0.3,0.9,0.6,1.7,0.8,2.4c0.2,0.5,0.3,1,0.5,1.4c-0.2,0.1-0.5,0.1-0.8,0.1l-5.8,0.6l2.7,5.2
	c0.5,1,0.7,2.2,0.4,3.4l-0.4,1.4l0.7,1.4c0.1,0.1,0.1,0.3,0.2,0.4l0.8,1.8l1.9,0.5c0.8,0.2,1.5,0.6,2,1.1c0.6,0.7,0.9,1.6,0.8,2.5
	c-0.1,1.8-1.4,3.9-3.4,5.4c-1.1,0.9-2.4,1.5-3.7,1.9l-3,0.9l0.1,3.1c0,0.7-0.1,1.4-0.4,2.1l-1.6,3.5l3.5,1.7
	c0.4,0.2,0.8,0.4,1.1,0.8c0.6,0.7,0.9,1.6,0.8,2.5c-0.1,1.8-1.4,3.8-3.4,5.4c-1.8,1.4-4,2.2-6.3,2.3c-1.2,0-2.4-0.3-3.4-1l-3.1-2.4
	l-2.5,3c-0.5,0.6-1.1,1.2-1.7,1.7c-0.7,0.5-1.4,1-2.2,1.3l-1.4,0.7l-0.6,1.5c-0.6,1.5-1.7,2.8-3,3.8c-1.8,1.4-4,2.2-6.4,2.3
	c-1.6,0-3-0.5-3.8-1.3c-0.2-0.2-0.4-0.5-0.5-0.7l-1.4-2.8l-3.1,0.8c-1.2,0.3-2.4,0.5-3.7,0.5c-2.7,0-5.1-0.8-6.4-2l-1.7-1.6
	l-2.3,0.8c-1,0.3-2,0.5-3.1,0.5c-1.6,0-3-0.5-3.8-1.3c-1.4-1.5-0.6-3.7-0.2-4.6l0.2-0.5l0.1-0.5c0.1-0.7,0.4-1.3,0.7-1.9l3.4-6.1
	l-7,0.2h-0.3c-2.8,0-5.5-1.1-7.4-3.2c-1.1-1.1-1.8-2.5-2.1-4l-1.6-7.5l-5.2,5.6c-0.4,0.4-0.8,0.8-1.3,1.2c-0.7,0.5-1.4,1-2.2,1.3
	l-1.4,0.7l-0.6,1.5c-0.6,1.5-1.7,2.8-3,3.8c-1.8,1.4-4,2.2-6.3,2.3c-1.6,0-3-0.5-3.8-1.3c-0.2-0.2-0.4-0.5-0.5-0.7l-1.4-2.8
	l-3.1,0.8c-1.2,0.3-2.4,0.5-3.7,0.5c-2.7,0-5-0.8-6.4-2l-1.7-1.7l-2.3,0.8c-1,0.3-2,0.5-3.1,0.5c-1.6,0-3-0.5-3.8-1.3
	c-0.6-0.7-0.9-1.7-0.8-2.6l0.7-6.3l-6,2.2c-0.3,0.1-0.5,0.2-0.7,0.2l-3,0.9l0.1,3.1c0,0.7-0.1,1.4-0.4,2.1l-1.6,3.5l3.5,1.7
	c0.4,0.2,0.8,0.5,1.1,0.8c0.6,0.7,0.9,1.6,0.8,2.5c-0.1,1.8-1.4,3.9-3.4,5.4c-1.8,1.4-4.1,2.3-6.4,2.3c-1.2,0-2.4-0.3-3.4-1l-3-2.4
	l-2.4,3c-0.5,0.6-1.1,1.2-1.7,1.7c-0.7,0.5-1.4,1-2.2,1.3l-1.4,0.7l-0.6,1.5c-0.6,1.5-1.7,2.8-3,3.8c-1.8,1.4-4,2.2-6.4,2.3
	c-1.6,0-3-0.5-3.8-1.3c-0.2-0.2-0.4-0.5-0.5-0.7l-1.4-2.9l-3.1,0.8c-1.2,0.3-2.4,0.5-3.7,0.5c-2.7,0-5.1-0.8-6.4-2l-1.7-1.6
	l-2.3,0.8c-1,0.3-2,0.5-3.1,0.5c-1.6,0-3-0.5-3.8-1.3c-1.4-1.5-0.6-3.7-0.2-4.6l0.2-0.5l0.1-0.5c0.1-0.7,0.4-1.3,0.7-1.9l3.4-6.1
	l-7,0.2h-0.3c-2.8,0-5.5-1.1-7.4-3.2c-1.6-1.6-2.4-3.7-2.2-5.9c0.2-1.9,1.1-3.6,2.6-4.7c0.5-0.4,1-0.7,1.6-1l3.2-1.4l-1.1-3.4
	c-0.6-1.7-0.4-3.5,0.3-5l0.2-0.5l0.1-0.5c0.3-1.6,1.2-3,2.5-4c0.5-0.4,1-0.7,1.6-1l3.2-1.4l-1.1-3.4c-0.1-0.2-0.1-0.4-0.2-0.6
	l-0.5-2.5l-2.5-0.5c-1.7-0.3-3.1-0.7-4.1-1c0.7-0.7,1.3-1.6,1.8-2.5c1.1-2.2,1.5-4.7,1.1-7.2c1.5,0.5,3,0.8,4.5,0.8
	c0.3,0,0.5,0,0.8,0c1.5-0.1,3-0.4,4.4-0.8c0.6-0.1,1.2-0.3,1.7-0.4l3.2,4l2.9-5.1c0.5-0.8,1.1-1.5,1.8-2.1c0.2-0.1,0.4-0.3,0.6-0.4
	l1.8-1.1l0-2.1c0-0.6,0.1-1.2,0.3-1.8c0.2-0.9,0.7-1.8,1.2-2.5l0.1,0.1c1.9,1.1,4,1.8,6.2,2c0.4,0,0.8,0,1.2,0
	c1.8,0,3.5-0.3,5.2-0.7c0.6-0.1,1.2-0.3,1.7-0.3l3.9,4.8l2.5-6.3c0.1-0.2,0.1-0.3,0.2-0.5l0.5,0.4c1.5,1.2,3.8,3,7.2,3.3
	c0.4,0,0.7,0.1,1.1,0.1c1.1,0,2.3-0.2,3.3-0.5l5.5,4.1l0.1,0.2l0.1-0.1l4.4,3.2c0.4,0.3,0.7,0.6,1,0.9l2,2.1l2.6-1.2l0.2-0.1l0,0
	l3.2-1.4l-1.1-3.4c-0.1-0.2-0.1-0.4-0.2-0.6l-0.6-2.5l-2.5-0.5l-1.4-0.3l-2.7-0.6c0.7-0.8,1.4-1.6,1.9-2.6c1.1-2.2,1.5-4.7,1.1-7.2
	c1.5,0.5,3,0.8,4.5,0.8c0.3,0,0.5,0,0.8,0c1.5-0.1,3-0.4,4.4-0.8c0.6-0.1,1.2-0.3,1.7-0.4l3.2,4l2.9-5.1c0.5-0.8,1.1-1.5,1.8-2.1
	c0.2-0.1,0.4-0.3,0.6-0.4l1.8-1.1l0-2.1c0-0.6,0.1-1.2,0.3-1.8c0.2-0.9,0.6-1.8,1.2-2.5l0.1,0.1c1.9,1.1,4,1.8,6.2,2
	c0.4,0,0.8,0,1.2,0c1.8,0,3.5-0.3,5.3-0.7c0.6-0.1,1.2-0.3,1.7-0.3l3.9,4.8l2.5-6.3C250.2,2.7,250.3,2.5,250.4,2.4 M250.1-2
	c-0.3,0-0.5,0-0.7,0.1c-1.5,0.4-2.3,2-2.8,3.2c-0.1-0.1-0.1-0.2-0.2-0.2c-0.6-0.6-1.4-0.9-2.2-0.8c-1.9,0-4.3,1.1-7.3,1.1
	c-0.3,0-0.6,0-0.9,0C232.3,1,231-1,229.2-1c-0.4,0-0.7,0.1-1.1,0.2c-2.5,1.1-3.6,4.8-3.7,5.4c-0.3,0.9-0.4,1.9-0.4,2.9
	c-0.3,0.2-0.6,0.4-0.9,0.6c-1.1,0.9-2.1,2-2.8,3.2c-0.1-0.1-0.1-0.2-0.2-0.2c-0.5-0.5-1.2-0.8-2-0.7c-1.9,0-4.3,1.1-6.8,1.2h-0.6
	c-4.2,0-6.5-2.7-8-2.7c-0.3,0-0.5,0.1-0.7,0.3c-1.8,1.5,1.9,6.4-0.4,10.9c-0.4,0.8-0.9,1.5-1.6,2c-0.7-1.9-1.6-2.7-2.4-3.1
	c-0.3-0.1-0.7-0.2-1-0.2c-2.1,0-4,2.5-7.2,2.5c-0.2,0-0.5,0-0.7,0c-4.1-0.4-5.9-4.2-8.4-4.2c-0.3,0-0.5,0-0.7,0.1
	c-1.5,0.4-2.3,2-2.8,3.2c0-0.1-0.1-0.1-0.2-0.3c-0.6-0.6-1.4-0.9-2.2-0.8c-1.9,0-4.4,1.1-7.3,1.1c-0.3,0-0.6,0-0.9,0
	c-3.7-0.3-5-2.3-6.8-2.3c-0.4,0-0.7,0.1-1.1,0.2c-2.5,1.1-3.6,4.8-3.7,5.4c-0.3,0.9-0.4,1.9-0.4,2.9c-0.3,0.2-0.6,0.4-0.9,0.6
	c-1.1,0.9-2.1,2-2.8,3.2c-0.1-0.1-0.1-0.2-0.2-0.3c-0.5-0.5-1.3-0.8-2-0.7c-1.9,0-4.3,1.1-6.8,1.2c-0.2,0-0.4,0-0.6,0
	c-4.2,0-6.5-2.7-8-2.7c-0.3,0-0.5,0.1-0.7,0.3c-1.8,1.5,1.9,6.4-0.4,10.9c-1.6,3.1-4.6,3.3-4.5,4.9c0.1,1.1,1.8,2.7,9.6,4.2
	c0.1,0.3,0.2,0.6,0.3,1c-0.9,0.4-1.7,0.9-2.4,1.4c-2.1,1.6-3.5,3.8-4,6.4c-1.2,2.5-1.4,5.4-0.5,8c-0.9,0.4-1.7,0.9-2.4,1.4
	c-5.2,4-5.6,11.4-0.8,16.5c2.7,2.8,6.4,4.4,10.3,4.4h0.5c-0.5,1-0.9,2-1.1,3.1c-1.6,3.2-1.4,6.6,0.9,9c1.6,1.7,4,2.6,6.6,2.6
	c1.5,0,2.9-0.3,4.3-0.7c2.1,2,5.4,3.1,9.1,3.1c1.6,0,3.1-0.2,4.6-0.6c0.3,0.6,0.7,1.2,1.2,1.7c1.6,1.7,4,2.6,6.6,2.6
	c3.2-0.1,6.3-1.2,8.8-3.1c1.9-1.4,3.4-3.3,4.3-5.5c1-0.5,2-1.1,2.9-1.8c0.9-0.7,1.7-1.4,2.4-2.3c1.7,1.2,3.7,1.9,5.8,1.8
	c3.2-0.1,6.3-1.1,8.8-3.1c5.1-4,6.5-10.1,3-13.7c-0.6-0.7-1.4-1.2-2.2-1.6c0.5-1.2,0.8-2.5,0.8-3.8c0.3-0.1,0.7-0.2,1-0.3
	c-0.3,2.1,0.4,4.2,1.8,5.7c1.6,1.7,4,2.6,6.6,2.6c1.5,0,2.9-0.3,4.3-0.7c2.1,2,5.4,3.1,9.1,3.1c1.6,0,3.1-0.2,4.6-0.6
	c0.3,0.6,0.7,1.2,1.2,1.7c1.6,1.7,4,2.6,6.6,2.6c3.2-0.1,6.3-1.2,8.8-3.1c1.9-1.4,3.4-3.3,4.3-5.5c1-0.5,2-1.1,2.9-1.8
	c0.6-0.5,1.2-1,1.8-1.6c0.5,2.2,1.6,4.2,3.1,5.8c2.7,2.8,6.4,4.5,10.3,4.5h0.5c-0.5,1-0.9,2-1.1,3.1c-1.6,3.2-1.4,6.6,0.9,9
	c1.6,1.7,4,2.6,6.6,2.6c1.5,0,2.9-0.3,4.3-0.7c2.1,2,5.4,3.1,9.1,3.1c1.6,0,3.1-0.2,4.6-0.6c0.3,0.6,0.7,1.2,1.2,1.7
	c1.6,1.7,4,2.6,6.6,2.6c3.2-0.1,6.3-1.1,8.8-3.1c1.9-1.4,3.4-3.3,4.3-5.5c1-0.5,2-1.1,2.9-1.8c0.9-0.7,1.7-1.4,2.4-2.3
	c1.7,1.2,3.7,1.9,5.8,1.8c3.2-0.1,6.3-1.2,8.8-3.1c5.1-4,6.4-10.1,3-13.7c-0.6-0.7-1.4-1.2-2.2-1.6c0.5-1.2,0.8-2.5,0.8-3.8
	c1.8-0.5,3.5-1.4,5-2.6c5.1-4,6.5-10.1,3-13.7c-1.1-1.1-2.5-1.9-4-2.2c-0.1-0.2-0.2-0.4-0.3-0.6c0.6-2.1,0.4-4.3-0.6-6.3
	c1.3-0.1,3.4-0.5,4.3-2.1c0.8-1.4-0.1-2.9-1.4-7c-2-6.3-1.3-6.8-2.7-9c-0.8-1.3-2.7-3.5-6.9-4.9c-0.5-5.6-2.1-7.2-3.3-7.8
	c-0.3-0.1-0.7-0.2-1-0.2c-2.1,0-4,2.5-7.3,2.5c-0.2,0-0.5,0-0.7,0c-4.1-0.4-5.9-4.2-8.4-4.2c-0.3,0-0.5,0-0.7,0.1
	c-1.5,0.4-2.3,2-2.8,3.2c-0.1-0.1-0.1-0.2-0.2-0.3c-0.6-0.6-1.4-0.9-2.2-0.8c-1.9,0-4.3,1.1-7.3,1.1c-0.3,0-0.6,0-0.9,0
	c-3.7-0.3-5-2.3-6.8-2.3c-0.4,0-0.7,0.1-1.1,0.2c-2.5,1.1-3.6,4.8-3.7,5.4c-0.3,0.9-0.4,1.9-0.4,2.9c-0.3,0.2-0.6,0.4-0.9,0.6
	c-1.1,0.9-2.1,2-2.8,3.2c-0.1-0.1-0.1-0.2-0.2-0.2c-0.5-0.5-1.2-0.8-2-0.7c-0.3,0-0.6,0-0.9,0.1c0.3-0.2,0.5-0.5,0.7-0.9
	c0.8-1.4-0.1-2.9-1.4-7c-2-6.3-1.3-6.8-2.7-9c-0.8-1.3-2.7-3.5-6.9-4.9c-0.5-5.6-2.1-7.2-3.3-7.8c-0.3-0.1-0.7-0.2-1-0.2
	c-2.1,0-4,2.5-7.3,2.5c-0.2,0-0.5,0-0.7,0C254.4,1.8,252.5-2,250.1-2L250.1-2z M206.6,30.4c-0.5-0.5-1-1-1.6-1.4
	c0.5,0.1,1,0.2,1.5,0.3c0.1,0.3,0.2,0.6,0.3,1L206.6,30.4L206.6,30.4z"/>
<linearGradient id="SVGID_11_" gradientUnits="userSpaceOnUse" x1="370.6077" y1="181.3459" x2="446.7397" y2="44.6645" gradientTransform="matrix(1.04 7.000000e-02 7.000000e-02 -1 -19.5585 324.0551)">
	<stop  offset="0" style="stop-color:#FFFFFF"/>
	<stop  offset="0.15" style="stop-color:#D7D7D7"/>
	<stop  offset="0.49" style="stop-color:#717171"/>
	<stop  offset="0.84" style="stop-color:#000000"/>
</linearGradient>
<path class="st13" d="M371.3,299.8c-2.6,0-5.4-0.9-8.4-2.8l-1-0.6l-1.1,0.4c-3.1,1.1-6.3,1.7-9.6,1.8c-2.8,0-5-0.6-6.7-1.8
	c-1.8-1.3-2.2-2.8-2.9-6.1c-0.7-3.8-1.9-7.5-3.7-11c-2.1-4.1-5-7.7-8.5-10.6c-2.3-2-3.4-3.1-3.8-5.3c-0.8-4,2-7,7.7-13.1
	c2.5-2.6,5.4-5.6,8.4-9.4c11-13.6,16.2-26.9,19.3-34.9c0.7-1.8,1.5-3.8,2.1-5l1.7,0.9l0.5-3.7c1-6.7,5.4-12,8.9-15.2
	c4.6-4.2,10-7.5,15.8-9.6c0.6-0.1,1.2-0.2,1.8-0.3c1.5-0.1,3-0.4,4.5-0.8l1.9-0.6l-0.1-2c-0.4-6.3,2.3-13.6,7.9-21.7l0.9-1.3
	l-0.7-1.3c-0.3-0.5-0.5-0.9-0.8-1.3c-5.1-8.6-12.4-12.3-17.7-15c-4.3-2.2-6.7-3.5-7-5.6c-0.9-5.5,10.4-14.2,22.3-17.3
	c3.3-0.9,6.7-1.3,10.1-1.3c17.1,0,32.5,10.4,40.6,19.2c3.9,4.3,15.9,17.5,13.1,31.1c-1.1,5.4-4.2,8.8-7.4,11.6l-0.8,0.7l0,1
	c-0.1,3-0.5,6-1.1,8.9c-2.3,10.9-7,15.7-12.5,21.3c-1.4,1.5-2.9,3-4.4,4.6l-0.7,0.8l0.1,1c0.2,3.1-0.1,6.1-1.8,10.5
	c-2.3,5.5-5.6,10.6-9.9,14.8l-0.5,0.5l-0.2,0.7c-0.9,4.4-2.4,8.7-4.2,12.8c-1.3,2.8-4.6,10.3-10.4,15.5c-3.3,3-5.2,3.3-7.6,3.7
	c-2.9,0.3-5.6,1.4-8,2.9c-6.9,4.5-9.8,11.7-12.3,18.1c-2.2,5.5-4.2,10.7-8.4,13.3C375,299.3,373.2,299.8,371.3,299.8z"/>
<path d="M413,107.8c7,0,14.4,1.9,21.6,5.5c6.4,3.2,12.3,7.6,17.2,12.9c3.7,4.1,15,16.6,12.5,28.9c-0.8,3.8-2.7,6.8-6.6,10.2
	l-1.6,1.4l-0.1,2.1c-0.1,2.9-0.5,5.7-1.1,8.5c-2.1,10.2-6.6,14.8-11.9,20.1c-1.5,1.5-3,3-4.5,4.7l-1.4,1.5l0.1,2
	c0.2,2.8-0.1,5.5-1.6,9.4c-2.2,5.2-5.3,10-9.3,14l-1,1l-0.3,1.3c-0.9,4.2-2.2,8.3-4,12.3c-1.2,2.7-4.4,9.8-9.8,14.7
	c-2.7,2.5-4.1,2.7-6.4,3.1c-3.2,0.4-6.3,1.5-8.9,3.3c-7.6,4.9-10.6,12.5-13.2,19.3c-2.1,5.3-3.9,9.9-7.4,12.1
	c-1.2,0.7-2.5,1.1-3.9,1.1c-2.1,0-4.5-0.8-7.2-2.4l-2-1.2l-2.2,0.7c-2.8,1-5.8,1.6-8.8,1.7c-2.2,0-4-0.5-5.3-1.3
	c-0.9-0.6-1.2-1.2-1.9-4.5c-0.7-4-2.1-8-4-11.6c-3.1-6-6.5-9.1-9-11.3c-2.2-2-2.8-2.6-3-3.9c-0.5-2.7,1.4-5,7-10.9
	c2.5-2.7,5.4-5.7,8.5-9.5c6.4-8,11.7-16.8,15.8-26.2c0.9,0.8,2,1.3,3.2,1.3h0.1c0.7,0,4-0.2,5-4.2c0.6-2.8,0.9-5.7,1-8.6
	c0.1-2.8,0-5.5-0.8-7.6c1.2-5.3,4.9-9.6,7.9-12.4c4.3-4,9.4-7,14.9-9c0.2-0.1,0.9-0.1,1.3-0.2c1.7-0.1,3.3-0.5,4.9-0.9l3.8-1.1
	l-0.2-3.9c-0.3-5.7,2.2-12.5,7.5-20.2l1.8-2.6l-1.5-2.7c-0.3-0.5-0.6-1-0.8-1.3c-5.5-9.2-13.1-13.1-18.7-15.9
	c-2.5-1.3-5.5-2.8-5.7-3.8c-0.2-1,1.1-3.7,5.2-7c4.5-3.5,9.7-6.1,15.2-7.6C406.6,108.2,409.8,107.8,413,107.8 M413,102.9
	c-3.6,0-7.2,0.5-10.7,1.4c-12.1,3.2-25.2,12.7-24.1,20.1c1.2,7.6,16.3,6.9,25.1,21.5c0.2,0.3,0.5,0.8,0.7,1.2
	c-4.9,7.1-8.8,15.3-8.3,23.3c-2.8,0.8-5.1,0.7-6.4,1.2c-11.2,4-24.5,14-26.3,26.8c0,0.1,0,0.1,0,0.2c2.1,1.1,0.4,14.6,0,14.6l0,0
	c-0.3,0-1-7.1,0-14.6l-0.1-0.1c-0.1,0-0.1,0-0.2,0c-2.8,0-5.9,20.5-22.8,41.4c-9.7,12-18,16.7-16.6,24.5c1.2,6.3,7.2,6.2,12.5,16.6
	c4.8,9.3,2.5,14.5,7.4,17.9c2.3,1.6,5.2,2.2,8.1,2.2c3.7,0,7.5-1,10.4-1.9c2.8,1.7,6.2,3.1,9.7,3.1c2.3,0,4.5-0.6,6.5-1.8
	c10.2-6.2,8.7-23.6,20.8-31.4c6.6-4.2,9.2-0.7,16-6.9c5.9-5.5,9.5-13.1,10.9-16.4c1.9-4.2,3.3-8.6,4.3-13.2
	c3.3-3.4,7.6-8.7,10.4-15.6c2-4.9,2.2-8.4,2-11.5c6.9-7.8,14.4-12.4,17.5-27c0.6-3.1,1-6.2,1.2-9.3c3.8-3.3,6.9-7.1,8.2-12.9
	c3.1-14.8-9.3-28.5-13.7-33.2C445.7,112.2,429.6,102.9,413,102.9L413,102.9z"/>
<linearGradient id="SVGID_12_" gradientUnits="userSpaceOnUse" x1="-1346.8853" y1="-2461.6765" x2="-1287.3647" y2="-2442.9526" gradientTransform="matrix(0.83 3.000000e-02 -5.000000e-02 0.89 1360.9835 2323.0464)">
	<stop  offset="5.000000e-02" style="stop-color:#000000"/>
	<stop  offset="0.24" style="stop-color:#030303"/>
	<stop  offset="0.37" style="stop-color:#0C0C0C"/>
	<stop  offset="0.48" style="stop-color:#1B1B1B"/>
	<stop  offset="0.58" style="stop-color:#303030"/>
	<stop  offset="0.67" style="stop-color:#4B4B4B"/>
	<stop  offset="0.75" style="stop-color:#6D6D6D"/>
	<stop  offset="0.83" style="stop-color:#959595"/>
	<stop  offset="0.91" style="stop-color:#C4C4C4"/>
	<stop  offset="0.99" style="stop-color:#F7F7F7"/>
	<stop  offset="1" style="stop-color:#FFFFFF"/>
</linearGradient>
<path class="st14" d="M399.6,130.6c-7,0-18-2.6-25.3-7.6c-2.2-1.5-8-5.4-7.5-8.1c0.4-2.1,5.3-3.3,9.3-4.2c5-1.2,9.4-2.2,9.7-5.5
	c0.4-3.3-3.6-5.1-7.8-7.2c-2.9-1.4-6.8-3.4-6.9-4.9c0-0.5,0.4-1.1,1-1.8c4.7-4.8,22.1-10.7,35.8-10.7c6.2,0,10.5,1.3,12,3.7
	c0.1,0.1,0.2,0.3,0.2,0.4c1.6,3.4-1.2,6.7-5.9,11.8c-4.6,4.9-9.8,10.5-8.8,17.6c0.3,1.8,0.8,3.5,1.4,5.2c1.1,3.3,2.1,6.1,0.5,8.7
	c-0.2,0.3-0.4,0.6-0.7,0.9C405.5,130,403,130.6,399.6,130.6z"/>
<path d="M408,82c7.9,0,10.1,2.1,10.7,3c0.1,0.1,0.1,0.2,0.2,0.3c1.2,2.5-1.3,5.5-5.6,10.1c-4.6,4.9-10.3,11-9.2,18.8
	c0.3,1.9,0.8,3.7,1.5,5.5c1.2,3.4,1.8,5.5,0.7,7.5c-0.1,0.2-0.3,0.4-0.4,0.6c-0.8,0.6-2.8,1.1-6.1,1.1c-6.8,0-17.4-2.5-24.5-7.3
	c-1.9-1.2-3.6-2.6-5.2-4.1c-1.5-1.5-1.7-2.3-1.7-2.5c0,0,0.2-0.5,1.9-1.2c2-0.8,4.1-1.4,6.3-1.8c5.3-1.3,10.4-2.5,10.8-6.8
	c0.5-4.3-4.1-6.5-8.6-8.7c-1.9-0.9-5.3-2.6-6-3.7c0.4-0.8,3.2-3.6,12.1-6.7C392.4,83.7,401.3,82,408,82L408,82 M408,79.1
	c-15.6,0-38.5,8-38.3,14c0.2,4.9,15.2,7.6,14.7,11.9c-0.5,4.7-17.9,3.8-19,9.6c-0.6,3.4,4.5,7.1,8.1,9.6c7.2,4.9,18.3,7.8,26.1,7.8
	c3.6,0,6.5-0.6,8.1-1.9c0.4-0.4,0.7-0.8,1-1.3c2.9-4.8-1.1-9.9-1.8-14.9c-1.7-12.7,18.9-20.7,14.6-29.9c-0.1-0.2-0.2-0.4-0.3-0.6
	C419.2,80.3,414.2,79.1,408,79.1L408,79.1z"/>
<linearGradient id="SVGID_13_" gradientUnits="userSpaceOnUse" x1="1096.646" y1="-864.7867" x2="1127.8011" y2="-920.7109" gradientTransform="matrix(-0.58 -0.93 -1.11 0.66 86.1595 1727.6119)">
	<stop  offset="0" style="stop-color:#FFFFFF"/>
	<stop  offset="0.15" style="stop-color:#D7D7D7"/>
	<stop  offset="0.49" style="stop-color:#717171"/>
	<stop  offset="0.84" style="stop-color:#000000"/>
</linearGradient>
<path class="st15" d="M412.8,157.5c-1.7,0-3.4-0.6-4.8-1.7l-1.2-0.9l-1.3,0.7c-2.8,1.4-4.2,1.6-4.8,1.6l0,0c0-0.2,0-0.5,0-0.7
	c0-1.4,0.1-3.6-1.5-5.6c-1.6-2-3.7-2.5-5.3-3c-0.3-0.1-0.6-0.2-0.9-0.3c0.2-0.3,0.4-0.7,0.7-1l3.3-3.8l-4.9-0.2
	c-0.2-0.4-0.4-0.9-0.5-1.4c-0.4-1.6-1.1-3.1-2.1-4.5c-1-1.3-2.4-2.4-4-3l-0.3-0.1c0.4-1,1.1-1.9,1.9-2.7c0.5-0.5,1-0.9,1.6-1.3
	l1-0.6l0.1-1.2c0-0.2,0.1-0.4,0.1-0.6c0.2-0.9,0.5-1.7,1-2.5l2.4-3.7l-4.2-0.2c-0.2-0.5-0.3-1-0.4-1.4c-0.3-1.1-0.7-2.2-1.2-3.2
	c-0.8-1.5-2-2.7-3.5-3.5c2-0.7,4.4-1.8,6.1-4.2c0.9-1.2,1.4-2.6,1.6-4c1.4,0.9,2.7,2,3.9,3.3l1.1,1.1l1.5-0.5
	c0.3-0.1,0.5-0.2,0.7-0.2l1.9-0.5l-0.1-2c0-0.5,0-1.1,0.1-1.6c0.4-1.7,1.3-3.1,2.6-4.2l0.2-0.2l0.2-0.2c1.2-1.6,2.9-2.7,4.8-3.2
	l1.9-0.5l-0.1-2c0-0.5,0-1.1,0.1-1.6c0.7-3.7,4.5-6.4,8.8-6.4c0.4,0,0.8,0,1.1,0.1c2.6,0.3,4.9,1.7,6,3.7l2,3.5l2.2-3.3
	c0.4-0.6,0.9-1.2,1.5-1.7l0.2-0.2l0.2-0.2c1.3-1.7,3.1-2.7,4.7-2.7c0.2,0,0.3,0,0.5,0c1.9,0.2,3.3,1.8,3.8,4.2l0.3,1.7l1.7,0.3
	c2.5,0.4,4.8,2.8,5.6,5.9l0.6,2.1l2.2-0.3c0.2,0,0.4-0.1,0.7-0.1c0.2,0,0.3,0,0.5,0c1.1,0.1,2.1,0.7,2.7,1.7c1,1.4,1.4,3.5,1,5.6
	c-0.3,1.6-1,3-2.1,4.2l-0.7,0.7l0,1c0,0.7,0,1.4-0.2,2.1c-0.1,0.7-0.4,1.4-0.7,2.1l-1.2,2.7l2.8,0.8c2.5,0.7,3.8,3.8,3.1,7.2
	c-0.7,3.6-3.5,6.5-6.4,6.5c-0.2,0-0.3,0-0.5,0c-0.5-0.1-0.9-0.2-1.3-0.4l-1.8-1l-1.3,1.6c-0.5,0.7-1.2,1.3-2,1.7l-1.6,0.9l0.4,1.8
	c0.2,1.1,0.2,2.3,0,3.5c-0.7,3.6-3.5,6.5-6.4,6.5c-0.2,0-0.3,0-0.5,0c-0.8-0.1-1.5-0.4-2-0.9l-0.9-0.8l-1.2,0.3l-0.5,0.1l-0.8,0.1
	l-0.6,0.5c-1,1-2.4,1.7-3.8,1.9l-3.4,0.5l1.5,3.1c0.3,0.7,0.4,1.2,0.3,1.3c-0.2,0.2-1.4,0.5-2.5,0.8c-0.6,0.2-1.4,0.4-2.2,0.6
	c-1.8,0.5-3.6,1.1-5.3,1.8c-0.7,0.3-1.5,0.5-2.2,0.6L412.8,157.5z"/>
<path d="M437.4,87.2h0.2c0.9,0.1,1.4,1.2,1.6,2.2l0.6,3.4l3.5,0.6c1.3,0.2,3,1.6,3.7,4.1l1.2,4.2l4.4-0.7c0.1,0,0.2,0,0.3,0h0.2
	c0.4,0.1,0.8,0.3,1,0.7c0.6,0.9,0.8,2.3,0.5,3.7c-0.2,1.1-0.7,2.2-1.5,3.1l-1.3,1.5l0.1,2c0,0.5,0,1-0.1,1.5c-0.1,0.5-0.3,1-0.5,1.5
	l-2.4,5.3l5.6,1.5c1,0.3,1.8,2.1,1.4,4.3c-0.5,2.7-2.5,4.5-4,4.5h-0.2c-0.2,0-0.3-0.1-0.4-0.1l-3.6-1.9l-2.5,3.2
	c-0.3,0.4-0.8,0.8-1.2,1.1l-3.2,1.8l0.8,3.6c0.2,0.8,0.2,1.6,0,2.4c-0.5,2.7-2.5,4.5-4,4.5h-0.2c-0.3,0-0.5-0.1-0.7-0.3l-1.9-1.6
	l-2.4,0.5c-0.1,0-0.2,0-0.4,0.1l-1.5,0.2l-1.1,1.1c-0.7,0.6-1.5,1.1-2.4,1.2l-6.7,0.9l2.3,4.8c-0.6,0.2-1.4,0.4-2.2,0.6
	c-1.9,0.5-3.7,1.2-5.6,1.9c-1,0.4-1,0.4-1.4,0.4h-0.2c-1.2,0-2.4-0.4-3.4-1.2l-2.4-1.8l-2.7,1.3c-0.5,0.3-1,0.5-1.4,0.6
	c-0.2-1.7-0.9-3.3-2-4.7c-1.1-1.3-2.4-2.3-4-2.9l4.9-5.8l-8.3-0.4c-0.5-1.8-1.3-3.5-2.4-4.9c-0.7-1-1.6-1.8-2.6-2.5l0.1-0.1
	c0.4-0.4,0.8-0.7,1.2-0.9l2.1-1.3l0.2-2.4c0-0.1,0-0.3,0.1-0.4c0.1-0.6,0.3-1.1,0.7-1.6l4.9-7.4l-6.8-0.2c-0.3-1.2-0.7-2.3-1.3-3.4
	c-0.3-0.6-0.7-1.2-1.2-1.8c1.4-0.9,2.6-2,3.6-3.3c0.3-0.4,0.6-0.9,0.8-1.3c0.3,0.3,0.6,0.6,0.9,0.9l2.2,2.2l3-1.1
	c0.2-0.1,0.4-0.1,0.5-0.2l3.8-1.1l-0.2-4c0-0.3,0-0.6,0.1-1c0.3-1.1,0.9-2.1,1.8-2.8l0.4-0.4l0.3-0.5c0.9-1.1,2.1-1.9,3.5-2.3
	l3.8-1.1l-0.2-4c0-0.3,0-0.7,0.1-1c0.5-2.5,3.3-4.5,6.4-4.5c0.3,0,0.6,0,0.9,0c1.8,0.2,3.4,1.1,4.2,2.5l3.9,6.9l4.5-6.5
	c0.3-0.4,0.7-0.8,1.1-1.2l0.4-0.4l0.4-0.5C435.5,87.9,436.5,87.2,437.4,87.2L437.4,87.2 M437.4,82.2c-2.5,0-5,1.4-6.7,3.7
	c-0.8,0.6-1.4,1.4-2,2.2c-1.5-2.6-4.3-4.5-7.9-4.9c-0.5-0.1-1-0.1-1.4-0.1c-5.4,0-10.3,3.5-11.2,8.4c-0.1,0.7-0.2,1.5-0.2,2.2
	c-2.4,0.7-4.6,2.1-6.1,4.1c-1.7,1.4-3,3.4-3.4,5.6c-0.1,0.7-0.2,1.5-0.2,2.2c-0.3,0.1-0.6,0.2-0.9,0.3c-3.5-3.4-5.4-4.4-6.5-4.4
	c-0.3,0-0.5,0.1-0.7,0.2c-1.3,0.7-0.3,2.8-2,5.3c-2.6,3.6-8,3.5-8.5,5.4c-0.4,1.7,3.8,1.4,5.7,4.9c1.3,2.4,1,5.6,3.2,5.9
	c0.1,0,0.2,0,0.3,0c-0.7,1-1.2,2.2-1.4,3.4c-0.1,0.3-0.1,0.6-0.1,0.9c-0.8,0.5-1.5,1-2.1,1.6c-0.4,0.3-2.9,2.8-2.7,4.9
	s2.8,1.4,4.8,4.1c2.1,2.8,1.5,6.4,4,6.8c0.1,0,0.2,0,0.3,0c-0.8,0.9-1.7,2.2-1.4,3.4c0.5,2.3,4.7,1.3,6.9,4c2.1,2.6-0.1,5.6,1.9,6.9
	c0.5,0.3,1,0.4,1.6,0.4c1.2,0,3-0.4,5.9-1.9c1.8,1.4,4,2.1,6.3,2.1h0.4c2.3-0.1,2.4-0.8,8.2-2.5c3.7-1.1,5.2-1.2,6-2.4
	c0.9-1.3,0.4-2.8-0.1-3.7c1.9-0.3,3.7-1.1,5.1-2.5c0.2,0,0.4-0.1,0.6-0.1c0.9,0.8,2.1,1.3,3.4,1.5c0.3,0,0.5,0,0.8,0
	c4,0,7.8-3.6,8.8-8.5c0.3-1.5,0.3-3,0-4.5c1-0.6,2-1.4,2.7-2.3c0.7,0.4,1.4,0.6,2.2,0.7c0.3,0,0.5,0,0.8,0c4,0,7.8-3.6,8.8-8.5
	c1-4.8-1.2-9.1-4.9-10.1c0.4-0.8,0.7-1.7,0.9-2.6c0.2-0.9,0.3-1.8,0.2-2.7c1.3-1.5,2.2-3.4,2.6-5.4c1-5.2-1.6-9.7-5.8-10.2
	c-0.2,0-0.5,0-0.7,0c-0.3,0-0.7,0-1,0.1c-1.2-4.2-4.2-7.1-7.6-7.7c-0.6-3.3-2.8-5.9-5.9-6.2C437.9,82.3,437.6,82.2,437.4,82.2
	L437.4,82.2z"/>
<linearGradient id="SVGID_14_" gradientUnits="userSpaceOnUse" x1="548.0319" y1="191.482" x2="624.1639" y2="54.7956" gradientTransform="matrix(-1.04 7.000000e-02 -7.000000e-02 -1 674.299 324.0551)">
	<stop  offset="0" style="stop-color:#FFFFFF"/>
	<stop  offset="0.15" style="stop-color:#D7D7D7"/>
	<stop  offset="0.49" style="stop-color:#717171"/>
	<stop  offset="0.84" style="stop-color:#000000"/>
</linearGradient>
<path class="st16" d="M98.2,302c-1.8,0-3.6-0.5-5.2-1.5c-4.2-2.6-6.3-7.8-8.4-13.3c-2.5-6.4-5.4-13.6-12.3-18.1
	c-2.4-1.6-5.2-2.6-8-2.9c-2.5-0.4-4.4-0.7-7.6-3.7c-5.7-5.2-9.1-12.7-10.4-15.5c-1.8-4.1-3.2-8.3-4.1-12.7l-0.2-0.7l-0.5-0.5
	c-4.2-4.3-7.6-9.3-9.9-14.8c-1.7-4.4-2-7.4-1.8-10.5l0.1-1l-0.7-0.8c-1.5-1.7-3-3.2-4.4-4.6c-5.5-5.6-10.2-10.4-12.5-21.3
	c-0.6-2.9-1-5.9-1.1-8.9l0-1.1l-0.8-0.7c-3.2-2.8-6.2-6.1-7.4-11.6c-2.8-13.5,9.1-26.7,13.1-31.1c8-8.9,23.5-19.2,40.6-19.2
	c3.4,0,6.8,0.4,10.1,1.3c11.9,3.1,23.1,11.9,22.2,17.3c-0.3,2.1-2.8,3.4-7,5.6c-5.3,2.7-12.6,6.4-17.7,15c-0.2,0.4-0.5,0.8-0.8,1.3
	l-0.8,1.4l0.9,1.3c5.6,8.1,8.3,15.4,7.9,21.7l-0.1,2l1.9,0.6c1.5,0.4,3,0.7,4.5,0.8c0.6,0,1.2,0.1,1.8,0.3
	c5.9,2.1,11.2,5.4,15.8,9.6c3.5,3.3,7.9,8.6,8.9,15.2l0.5,3.7l1.7-0.9c0.6,1.2,1.4,3.2,2.1,5c3.1,8,8.3,21.3,19.3,34.9
	c3,3.7,5.9,6.7,8.4,9.4c5.7,6,8.4,9.1,7.7,13.1c-0.4,2.2-1.5,3.2-3.8,5.3c-3.5,2.9-6.4,6.5-8.5,10.6c-1.8,3.5-3,7.2-3.7,11
	c-0.7,3.3-1.1,4.8-2.9,6.1c-1.7,1.2-4,1.8-6.7,1.8c-3.3-0.1-6.5-0.7-9.6-1.8l-1.1-0.4l-1,0.6C103.6,301.1,100.7,302,98.2,302z"/>
<path d="M56.5,110c3.2,0,6.4,0.4,9.5,1.2c5.5,1.5,10.7,4.1,15.2,7.6c4.1,3.3,5.4,6,5.2,7c-0.2,1-3.2,2.5-5.7,3.8
	c-5.6,2.8-13.2,6.7-18.7,15.9c-0.2,0.3-0.5,0.8-0.8,1.3l-1.5,2.7l1.8,2.6c5.3,7.7,7.8,14.4,7.5,20.2l-0.2,3.9l3.8,1.1
	c1.6,0.5,3.3,0.8,4.9,0.9c0.5,0.1,1.1,0.1,1.3,0.2c5.5,2,10.6,5.1,14.9,9c3,2.8,6.6,7.1,7.9,12.4c-0.8,2.2-0.9,4.9-0.8,7.6
	c0.1,2.9,0.4,5.8,1,8.6c1,4,4.3,4.2,5,4.2h0.1c1.2,0,2.4-0.5,3.2-1.3c4.1,9.4,9.4,18.2,15.8,26.2c3.1,3.8,6,6.9,8.5,9.5
	c5.6,5.9,7.5,8.2,7,10.9c-0.2,1.3-0.8,1.9-3,3.9c-2.5,2.2-5.9,5.3-9,11.3c-1.9,3.7-3.2,7.6-4,11.6c-0.7,3.3-0.9,3.9-1.9,4.5
	c-1.3,0.9-3,1.3-5.3,1.3c-3-0.1-6-0.7-8.8-1.7l-2.2-0.7l-2,1.2c-2.7,1.6-5.1,2.4-7.2,2.4c-1.4,0-2.7-0.4-3.9-1.1
	c-3.5-2.1-5.3-6.7-7.4-12.1c-2.7-6.7-5.7-14.4-13.2-19.3c-2.7-1.8-5.8-2.9-8.9-3.3c-2.3-0.4-3.7-0.6-6.4-3.1
	c-5.4-4.9-8.6-12-9.8-14.7c-1.8-3.9-3.1-8-4-12.3l-0.3-1.3l-1-1c-4-4-7.2-8.8-9.3-14c-1.6-4-1.8-6.6-1.6-9.4l0.1-2l-1.4-1.5
	c-1.5-1.7-3-3.2-4.5-4.7c-5.2-5.3-9.7-9.8-11.8-20.1c-0.6-2.8-0.9-5.6-1.1-8.5l-0.1-2.1l-1.6-1.4c-3.9-3.4-5.8-6.4-6.6-10.2
	c-1.1-5.1,0.1-10.8,3.5-16.9c3-5.4,6.9-9.6,8.9-11.9c4.9-5.3,10.7-9.7,17.1-12.9C42.1,111.9,49.5,110,56.5,110L56.5,110 M56.5,105.1
	c-16.6,0-32.7,9.3-42.4,20c-4.3,4.8-16.7,18.5-13.7,33.2c1.2,5.8,4.4,9.6,8.2,12.9c0.2,3.1,0.5,6.2,1.2,9.3
	c3.1,14.7,10.6,19.3,17.5,27c-0.2,3.2,0,6.6,2,11.5c2.8,7,7.1,12.2,10.4,15.7c1,4.5,2.4,8.9,4.3,13.2c1.4,3.2,4.9,10.9,11,16.3
	c6.8,6.2,9.4,2.7,16,6.9c12,7.8,10.5,25.2,20.8,31.4c1.9,1.2,4.2,1.9,6.5,1.8c3.5,0,6.9-1.4,9.7-3.1c2.9,1,6.7,1.9,10.4,1.9
	c2.9,0,5.8-0.6,8.1-2.2c4.9-3.4,2.5-8.6,7.4-17.9c5.4-10.3,11.3-10.3,12.5-16.6c1.5-7.8-6.8-12.4-16.6-24.5
	c-16.9-20.9-20-41.4-22.8-41.4c-0.1,0-0.1,0-0.2,0c0,0-0.1,0-0.1,0.1c1.1,7.5,0.4,14.6,0,14.6l0,0c-0.5,0-2.2-13.5,0-14.6l0-0.2
	c-1.9-12.8-15.1-22.8-26.3-26.8c-1.4-0.5-3.7-0.3-6.4-1.2c0.5-7.9-3.5-16.2-8.3-23.3c0.3-0.5,0.5-0.9,0.7-1.2
	c8.7-14.6,23.9-13.9,25.1-21.5c1.2-7.4-11.9-16.9-24.1-20.1C63.8,105.5,60.2,105,56.5,105.1L56.5,105.1z"/>
<linearGradient id="SVGID_15_" gradientUnits="userSpaceOnUse" x1="-1123.0469" y1="-2466.3994" x2="-1063.5215" y2="-2447.6755" gradientTransform="matrix(-0.83 3.000000e-02 5.000000e-02 0.89 -706.243 2323.0464)">
	<stop  offset="5.000000e-02" style="stop-color:#000000"/>
	<stop  offset="0.24" style="stop-color:#030303"/>
	<stop  offset="0.37" style="stop-color:#0C0C0C"/>
	<stop  offset="0.48" style="stop-color:#1B1B1B"/>
	<stop  offset="0.58" style="stop-color:#303030"/>
	<stop  offset="0.67" style="stop-color:#4B4B4B"/>
	<stop  offset="0.75" style="stop-color:#6D6D6D"/>
	<stop  offset="0.83" style="stop-color:#959595"/>
	<stop  offset="0.91" style="stop-color:#C4C4C4"/>
	<stop  offset="0.99" style="stop-color:#F7F7F7"/>
	<stop  offset="1" style="stop-color:#FFFFFF"/>
</linearGradient>
<path class="st17" d="M69.9,132.7c-3.3,0-5.9-0.5-7.1-1.5c-0.2-0.3-0.5-0.6-0.7-0.9c-1.6-2.7-0.6-5.5,0.5-8.7
	c0.7-1.7,1.1-3.4,1.4-5.2c0.9-7.1-4.3-12.7-8.8-17.6c-4.7-5.1-7.5-8.4-5.9-11.8c0.1-0.2,0.1-0.3,0.2-0.4c1.5-2.4,5.8-3.7,12-3.7
	c13.7,0,31.1,5.9,35.8,10.7c0.7,0.7,1.1,1.4,1,1.8c0,1.6-4,3.5-6.9,4.9c-4.2,2.1-8.2,4-7.8,7.2c0.4,3.2,4.7,4.3,9.7,5.5
	c4,0.9,8.9,2.1,9.3,4.2c0.5,2.6-5.3,6.6-7.5,8.1C87.9,130.2,76.9,132.8,69.9,132.7L69.9,132.7z"/>
<path d="M61.6,84.2c6.7,0,15.5,1.6,23.2,4.3c9,3.1,11.7,5.9,12.1,6.7c-0.6,1-4.1,2.7-6,3.7c-4.5,2.2-9.1,4.5-8.6,8.7
	c0.5,4.2,5.5,5.5,10.8,6.8c2.1,0.4,4.2,1,6.3,1.8c1.7,0.7,1.9,1.2,1.9,1.2c0,0.2-0.2,1-1.7,2.5c-1.6,1.5-3.4,2.9-5.2,4.1
	c-7,4.8-17.6,7.3-24.5,7.3c-3.3,0-5.3-0.6-6.1-1.1c-0.2-0.2-0.3-0.4-0.4-0.6c-1.2-2-0.5-4.1,0.7-7.5c0.7-1.8,1.2-3.6,1.5-5.5
	c1-7.8-4.7-13.9-9.2-18.8c-4.3-4.6-6.8-7.6-5.6-10.1c0-0.1,0.1-0.2,0.1-0.3C51.4,86.4,53.6,84.2,61.6,84.2 M61.5,81.3
	c-6.2,0-11.2,1.3-13.2,4.4c-0.1,0.2-0.2,0.4-0.3,0.6c-4.3,9.2,16.3,17.1,14.6,29.9c-0.7,5-4.7,10.1-1.8,14.9c0.3,0.5,0.6,0.9,1,1.3
	c1.6,1.3,4.5,1.9,8.1,1.9c7.9,0,18.9-2.9,26.1-7.8c3.6-2.5,8.8-6.2,8.1-9.6c-1.1-5.8-18.4-4.9-19-9.6c-0.5-4.4,14.5-7.1,14.7-11.9
	C100,89.3,77.1,81.3,61.5,81.3z"/>
<linearGradient id="SVGID_16_" gradientUnits="userSpaceOnUse" x1="276.6587" y1="107.1026" x2="305.8203" y2="54.7451" gradientTransform="matrix(1 0 0 -1 -6.92 354.1532)">
	<stop  offset="0" style="stop-color:#FFFFFF"/>
	<stop  offset="0.15" style="stop-color:#D7D7D7"/>
	<stop  offset="0.49" style="stop-color:#717171"/>
	<stop  offset="0.84" style="stop-color:#000000"/>
</linearGradient>
<path class="st18" d="M274.8,287.4c-19.6-0.5-42.7-15-41.1-30.7c1.3-13.3,19.7-20.9,21.8-21.8h41.1c2.6,1.1,20.5,8.8,21.8,21.8
	C319.9,272.5,295.7,287.9,274.8,287.4z"/>
<linearGradient id="SVGID_17_" gradientUnits="userSpaceOnUse" x1="1008.1516" y1="-984.9052" x2="1039.3068" y2="-1040.8341" gradientTransform="matrix(0.58 -0.93 1.11 0.66 568.5809 1727.6119)">
	<stop  offset="0" style="stop-color:#FFFFFF"/>
	<stop  offset="0.15" style="stop-color:#D7D7D7"/>
	<stop  offset="0.49" style="stop-color:#717171"/>
	<stop  offset="0.84" style="stop-color:#000000"/>
</linearGradient>
<path class="st19" d="M56.7,159.7h-0.3c-0.8,0-1.5-0.2-2.2-0.6c-1.7-0.7-3.5-1.3-5.3-1.8c-0.8-0.2-1.6-0.4-2.2-0.6
	c-1.1-0.3-2.3-0.6-2.5-0.8c-0.1-0.1-0.1-0.5,0.3-1.3l1.5-3.1l-3.4-0.5c-1.4-0.2-2.8-0.9-3.8-1.9l-0.6-0.6l-0.8-0.1l-0.5-0.1
	l-1.2-0.3l-0.9,0.8c-0.6,0.5-1.3,0.8-2,0.9c-0.2,0-0.3,0-0.5,0c-2.8,0-5.7-2.8-6.4-6.5c-0.2-1.1-0.2-2.3,0-3.5l0.4-1.8l-1.6-0.9
	c-0.8-0.4-1.4-1-2-1.7l-1.3-1.6l-1.8,1c-0.5,0.3-1.2,0.4-1.8,0.4c-2.8,0-5.7-2.8-6.4-6.5c-0.7-3.4,0.7-6.5,3.1-7.2l2.8-0.8l-1.2-2.7
	c-0.3-0.7-0.5-1.4-0.7-2.1c-0.1-0.7-0.2-1.4-0.2-2.1l0-1l-0.7-0.7c-1-1.2-1.8-2.7-2.1-4.2c-0.4-2.1-0.1-4.2,1-5.6
	c0.6-0.9,1.6-1.5,2.7-1.7c0.1,0,0.3,0,0.5,0c0.2,0,0.5,0,0.7,0.1l2.2,0.3l0.6-2.1c0.9-3.1,3.1-5.5,5.6-5.9l1.7-0.3l0.3-1.7
	c0.4-2.4,1.9-4,3.8-4.2c0.2,0,0.3,0,0.5,0c1.7,0,3.4,1,4.7,2.7l0.2,0.2l0.2,0.2c0.6,0.5,1.1,1.1,1.5,1.7l2.2,3.3l2-3.4
	c1.1-2,3.4-3.4,6-3.7c0.4,0,0.8-0.1,1.1-0.1c4.3,0,8.1,2.8,8.8,6.4c0.1,0.5,0.1,1.1,0.1,1.6l-0.1,2l1.9,0.5c1.9,0.5,3.6,1.7,4.8,3.2
	l0.2,0.2L66,102c1.3,1.1,2.2,2.5,2.6,4.2c0.1,0.5,0.1,1.1,0.1,1.6l-0.1,2l1.9,0.5c0.2,0.1,0.4,0.1,0.7,0.2l1.5,0.5l1.1-1.1
	c1.2-1.2,2.5-2.3,3.9-3.3c0.2,1.5,0.7,2.8,1.6,4c1.7,2.3,4.1,3.4,6.1,4.2c-1.5,0.8-2.7,2.1-3.5,3.5c-0.5,1-0.9,2.1-1.2,3.2
	c-0.1,0.5-0.3,1-0.4,1.4l-4.2,0.2l2.4,3.7c0.5,0.7,0.9,1.6,1,2.5c0,0.2,0.1,0.4,0.1,0.6l0.1,1.2l1,0.6c0.6,0.4,1.1,0.8,1.6,1.3
	c0.8,0.8,1.5,1.7,1.9,2.7l-0.3,0.1c-1.6,0.6-2.9,1.6-4,3c-1,1.3-1.7,2.9-2.1,4.5c-0.1,0.5-0.3,0.9-0.5,1.4l-4.9,0.2l3.2,3.8
	c0.3,0.3,0.5,0.6,0.7,1c-0.3,0.1-0.6,0.2-0.9,0.3c-1.6,0.4-3.7,1-5.3,3c-1.6,1.9-1.6,4.2-1.5,5.6c0,0.2,0,0.5,0,0.7l0,0
	c-0.6,0-2-0.2-4.8-1.6l-1.3-0.7l-1.2,0.9C60.1,159.1,58.5,159.7,56.7,159.7L56.7,159.7z"/>
<path d="M32.1,89.4c0.9,0,1.9,0.7,2.7,1.8l0.4,0.5l0.4,0.4c0.4,0.3,0.8,0.7,1.1,1.2l4.5,6.5l3.9-6.9c0.8-1.3,2.3-2.2,4.1-2.5
	c0.3,0,0.6,0,0.9,0c3.1,0,5.9,1.9,6.4,4.5c0.1,0.3,0.1,0.6,0.1,1l-0.2,4l3.8,1.1c1.4,0.4,2.6,1.2,3.5,2.3l0.3,0.5l0.4,0.4
	c0.9,0.7,1.5,1.7,1.8,2.8c0.1,0.3,0.1,0.6,0.1,1l-0.2,4l3.8,1.1l0.5,0.2l2.9,1.1l2.2-2.2c0.3-0.3,0.6-0.6,0.9-0.9
	c0.2,0.5,0.5,0.9,0.8,1.3c1,1.3,2.2,2.5,3.6,3.3c-0.4,0.6-0.8,1.1-1.2,1.8c-0.6,1.1-1,2.2-1.3,3.4l-6.8,0.2l4.9,7.4
	c0.3,0.5,0.6,1,0.7,1.6c0,0.1,0,0.3,0.1,0.4l0.2,2.4l2.1,1.3c0.4,0.3,0.8,0.6,1.2,0.9c0,0,0,0,0.1,0.1c-1,0.7-1.9,1.5-2.6,2.5
	c-1.1,1.5-1.9,3.2-2.4,4.9l-8.3,0.4l5,5.8c-1.5,0.6-2.9,1.6-4,2.9c-1.1,1.3-1.8,3-2,4.7c-0.4-0.2-0.8-0.4-1.4-0.6l-2.7-1.3l-2.4,1.8
	c-1,0.7-2.1,1.2-3.4,1.2h-0.2c-0.4,0-0.4,0-1.4-0.4c-1.8-0.7-3.7-1.4-5.6-1.9c-0.9-0.3-1.6-0.4-2.2-0.6l2.3-4.8l-6.7-0.9
	c-0.9-0.1-1.8-0.5-2.4-1.2l-1.1-1.1l-1.5-0.2c-0.1,0-0.2,0-0.4-0.1l-2.4-0.5l-1.9,1.6c-0.2,0.2-0.4,0.3-0.7,0.3h-0.2
	c-1.4,0-3.4-1.9-4-4.5c-0.2-0.8-0.2-1.6,0-2.4l0.8-3.6l-3.2-1.8c-0.5-0.3-0.9-0.6-1.2-1.1l-2.5-3.2l-3.6,1.9
	c-0.1,0.1-0.3,0.1-0.4,0.1h-0.2c-1.4,0-3.4-1.9-4-4.5c-0.5-2.2,0.3-4,1.4-4.3l5.6-1.5l-2.4-5.3c-0.2-0.5-0.4-1-0.5-1.5
	c-0.1-0.5-0.1-1-0.1-1.5l0.1-2l-1.3-1.5c-0.7-0.9-1.3-2-1.5-3.1c-0.3-1.4-0.1-2.8,0.5-3.7c0.2-0.4,0.6-0.6,1-0.7c0.1,0,0.1,0,0.2,0
	c0.1,0,0.2,0,0.3,0l4.4,0.7l1.2-4.2c0.7-2.5,2.4-3.9,3.7-4.1l3.5-0.6l0.6-3.5c0.2-0.9,0.7-2.1,1.6-2.2L32.1,89.4 M32.1,84.4
	c-0.3,0-0.5,0-0.8,0c-3.1,0.4-5.3,2.9-5.9,6.2c-3.4,0.6-6.4,3.5-7.6,7.7c-0.3-0.1-0.7-0.1-1-0.1c-0.2,0-0.5,0-0.7,0
	c-4.2,0.5-6.9,5.1-5.8,10.2c0.4,2,1.3,3.8,2.6,5.4c0,0.9,0,1.8,0.2,2.7c0.2,0.9,0.5,1.8,0.9,2.6c-3.7,1-5.9,5.3-4.9,10.1
	c1,4.8,4.8,8.5,8.8,8.5c0.3,0,0.5,0,0.8,0c0.8-0.1,1.5-0.3,2.2-0.7c0.7,0.9,1.7,1.7,2.7,2.3c-0.3,1.5-0.3,3,0,4.5
	c1,4.8,4.8,8.5,8.8,8.5c0.3,0,0.5,0,0.8,0c1.2-0.1,2.4-0.7,3.4-1.5c0.2,0,0.4,0.1,0.6,0.1c1.4,1.4,3.2,2.3,5.2,2.5
	c-0.4,0.9-1,2.5-0.1,3.7c0.8,1.2,2.3,1.3,6,2.4c5.7,1.7,5.9,2.4,8.2,2.5h0.4c2.3,0,4.5-0.8,6.3-2.1c2.9,1.4,4.7,1.9,5.9,1.9
	c0.5,0,1.1-0.1,1.6-0.4c2-1.2-0.2-4.3,1.9-6.9c2.2-2.7,6.4-1.7,6.9-4c0.2-1.2-0.6-2.5-1.4-3.4c0.1,0,0.2,0,0.3,0
	c2.5-0.4,1.9-4,4-6.8c2.1-2.7,4.7-2,4.8-4.1c0.1-2.1-2.4-4.6-2.7-4.9c-0.6-0.6-1.3-1.2-2.1-1.6c0-0.3-0.1-0.6-0.1-0.9
	c-0.2-1.2-0.7-2.3-1.4-3.4c0.1,0,0.2,0,0.3,0c2.2-0.3,1.9-3.5,3.2-5.9c1.9-3.6,6.1-3.3,5.7-4.9c-0.5-1.9-5.9-1.8-8.5-5.4
	c-1.8-2.5-0.8-4.6-2-5.3c-0.2-0.1-0.5-0.2-0.7-0.2c-1.1,0-3,0.9-6.5,4.4c-0.3-0.1-0.6-0.2-0.9-0.3c0-0.7,0-1.5-0.2-2.2
	c-0.5-2.2-1.7-4.2-3.4-5.6c-1.5-2-3.7-3.4-6.1-4.1c0-0.8,0-1.5-0.2-2.2c-1-4.9-5.8-8.4-11.2-8.4c-0.5,0-1,0-1.4,0.1
	c-3.5,0.4-6.4,2.3-7.9,4.9c-0.6-0.8-1.2-1.6-2-2.2C37.2,85.9,34.7,84.4,32.1,84.4L32.1,84.4z"/>
<linearGradient id="SVGID_18_" gradientUnits="userSpaceOnUse" x1="187.4176" y1="107.1026" x2="216.5792" y2="54.7451" gradientTransform="matrix(1 0 0 -1 -6.92 354.1532)">
	<stop  offset="0" style="stop-color:#FFFFFF"/>
	<stop  offset="0.15" style="stop-color:#D7D7D7"/>
	<stop  offset="0.49" style="stop-color:#717171"/>
	<stop  offset="0.84" style="stop-color:#000000"/>
</linearGradient>
<path class="st20" d="M185.6,287.4c-19.6-0.5-42.7-15-41.1-30.7c1.3-13.3,19.7-20.9,21.8-21.8h41.1c2.6,1.1,20.5,8.8,21.8,21.8
	C230.6,272.5,206.4,287.9,185.6,287.4z"/>
<path class="st11" d="M304.1,259.7l12.6,6.4c-12-10.1-20.9-23.4-25.5-38.4c-0.2,2.1-0.4,4.3-0.7,6.4c-0.3,5.9,1.2,11.7,4.4,16.6
	C297.2,254.5,300.4,257.5,304.1,259.7z"/>
<path class="st11" d="M289.8,236.2l-11-9c9.6,12.4,15.5,27.3,16.8,42.9l2-6.1c1.5-5.7,1.3-11.7-0.8-17.2
	C295.3,242.8,292.9,239.1,289.8,236.2z"/>
<path class="st11" d="M285.6,240.2l-8.8-11.1c6.8,14.1,9.3,30,7.3,45.5l3.3-5.6c2.7-5.2,3.7-11.1,2.9-16.9
	C289.7,247.8,288.1,243.7,285.6,240.2z"/>
<linearGradient id="SVGID_19_" gradientUnits="userSpaceOnUse" x1="282.2385" y1="129.8462" x2="300.8139" y2="167.9023" gradientTransform="matrix(1 0 0 -1 -6.92 354.1532)">
	<stop  offset="0" style="stop-color:#F7931E"/>
	<stop  offset="0.15" style="stop-color:#CF7B19"/>
	<stop  offset="0.5" style="stop-color:#6A3F0D"/>
	<stop  offset="0.84" style="stop-color:#000000"/>
</linearGradient>
<path class="st21" d="M260.3,196.1c6.9-0.6,13.6-3,19.3-6.9c3.7,6.1,7.5,12.4,11.2,19.2c4,7.2,7.6,14.1,11,20.9
	c-9.2,1.8-17.8,5.8-25.2,11.6C269.5,226.6,264,211.6,260.3,196.1z"/>
<linearGradient id="SVGID_20_" gradientUnits="userSpaceOnUse" x1="259.933" y1="31.1089" x2="274.7438" y2="4.5196" gradientTransform="matrix(1 0 0 -1 -6.92 354.1532)">
	<stop  offset="0" style="stop-color:#FFFFFF"/>
	<stop  offset="0.15" style="stop-color:#D7D7D7"/>
	<stop  offset="0.49" style="stop-color:#717171"/>
	<stop  offset="0.84" style="stop-color:#000000"/>
</linearGradient>
<path class="st22" d="M255.6,343.4c-10.1-0.2-21.9-7.5-21.1-15.4c0.7-6.7,10.1-10.5,11.2-11h21.1c1.3,0.5,10.6,4.5,11.2,11
	C278.7,335.9,266.3,343.7,255.6,343.4z"/>
<linearGradient id="SVGID_21_" gradientUnits="userSpaceOnUse" x1="213.874" y1="31.1095" x2="228.6849" y2="4.5202" gradientTransform="matrix(1 0 0 -1 -6.92 354.1532)">
	<stop  offset="0" style="stop-color:#FFFFFF"/>
	<stop  offset="0.15" style="stop-color:#D7D7D7"/>
	<stop  offset="0.49" style="stop-color:#717171"/>
	<stop  offset="0.84" style="stop-color:#000000"/>
</linearGradient>
<path class="st23" d="M209.5,343.4c-10.1-0.2-21.9-7.5-21.1-15.4c0.7-6.7,10.1-10.5,11.2-11h21.1c1.3,0.5,10.5,4.5,11.2,11
	C232.7,335.9,220.3,343.7,209.5,343.4z"/>
<linearGradient id="SVGID_22_" gradientUnits="userSpaceOnUse" x1="251.1062" y1="4.3801" x2="260.0649" y2="-11.7021" gradientTransform="matrix(1 0 0 -1 -6.92 354.1532)">
	<stop  offset="0" style="stop-color:#FFFFFF"/>
	<stop  offset="0.15" style="stop-color:#D7D7D7"/>
	<stop  offset="0.49" style="stop-color:#717171"/>
	<stop  offset="0.84" style="stop-color:#000000"/>
</linearGradient>
<path class="st24" d="M245.7,362.1c-6.1-0.1-13.3-4.6-12.8-9.3c0.4-4,6.1-6.4,6.8-6.6h12.8c0.8,0.3,6.4,2.7,6.8,6.6
	C259.8,357.6,252.2,362.2,245.7,362.1z"/>
<linearGradient id="SVGID_23_" gradientUnits="userSpaceOnUse" x1="223.2405" y1="4.3773" x2="232.1993" y2="-11.7048" gradientTransform="matrix(1 0 0 -1 -6.92 354.1532)">
	<stop  offset="0" style="stop-color:#FFFFFF"/>
	<stop  offset="0.15" style="stop-color:#D7D7D7"/>
	<stop  offset="0.49" style="stop-color:#717171"/>
	<stop  offset="0.84" style="stop-color:#000000"/>
</linearGradient>
<path class="st25" d="M217.9,362.1c-6.1-0.1-13.3-4.6-12.8-9.3c0.4-4,6.1-6.4,6.8-6.6h12.7c0.8,0.3,6.4,2.7,6.8,6.6
	C231.9,357.6,224.4,362.2,217.9,362.1z"/>
<linearGradient id="SVGID_24_" gradientUnits="userSpaceOnUse" x1="262.0188" y1="59.2131" x2="279.2833" y2="28.2162" gradientTransform="matrix(1 0 0 -1 -6.92 354.1532)">
	<stop  offset="0" style="stop-color:#FFFFFF"/>
	<stop  offset="0.15" style="stop-color:#D7D7D7"/>
	<stop  offset="0.49" style="stop-color:#717171"/>
	<stop  offset="0.84" style="stop-color:#000000"/>
</linearGradient>
<path class="st26" d="M258.1,318.7c-11.7-0.3-25.6-8.8-24.6-18c0.8-7.8,11.8-12.3,13-12.8h24.6c1.6,0.6,12.3,5.2,13,12.8
	C285.1,310,270.6,319,258.1,318.7z"/>
<linearGradient id="SVGID_25_" gradientUnits="userSpaceOnUse" x1="208.3335" y1="59.2175" x2="225.603" y2="28.2205" gradientTransform="matrix(1 0 0 -1 -6.92 354.1532)">
	<stop  offset="0" style="stop-color:#FFFFFF"/>
	<stop  offset="0.15" style="stop-color:#D7D7D7"/>
	<stop  offset="0.49" style="stop-color:#717171"/>
	<stop  offset="0.84" style="stop-color:#000000"/>
</linearGradient>
<path class="st27" d="M204.4,318.7c-11.7-0.3-25.5-8.8-24.6-18c0.8-7.8,11.8-12.3,13-12.8h24.6c1.6,0.6,12.3,5.2,13,12.8
	C231.4,310,216.9,319,204.4,318.7z"/>
<circle class="st28" cx="182.8" cy="270.1" r="8.9"/>
<circle class="st28" cx="278.8" cy="271.1" r="8.9"/>
</svg>
